<svg width="1610" height="146" viewBox="0 0 1610 146" fill="none" xmlns="http://www.w3.org/2000/svg">
<path d="M87.4 114C110 114 120.6 103.6 125 85.8H173.6C167 129.6 129 146 87.4 146C41.8 146 2.38419e-07 126.6 2.38419e-07 73C2.38419e-07 19.6 41.8 0.199991 87.4 0.199991C129 0.199991 167 16.6 173.6 60.4H125C120.6 42.6 110 32.2 87.4 32.2C60.4 32.2 48 48.4 48 73C48 97.8 60.4 114 87.4 114ZM297.747 2.99999H345.147V84.4C345.147 138.6 307.147 146 267.347 146C227.547 146 189.547 138.6 189.547 84.4V2.99999H236.947V80.6C236.947 109.2 248.347 114 267.347 114C286.147 114 297.747 109.2 297.747 80.6V2.99999ZM503.333 110.8V143H365.133V2.99999H412.533V110.8H503.333ZM640.9 2.99999V35.4H587.9V143H540.5V35.4H487.5V2.99999H640.9ZM795.883 0.199991C841.283 0.199991 887.083 19.6 887.083 73C887.083 126.6 841.283 146 795.883 146C750.483 146 704.883 126.6 704.883 73C704.883 19.6 750.483 0.199991 795.883 0.199991ZM795.883 114C823.483 114 838.883 98.6 838.883 73C838.883 47.6 823.483 32.2 795.883 32.2C768.483 32.2 752.883 47.6 752.883 73C752.883 98.6 768.483 114 795.883 114ZM1041.22 35.4H950.623V58.8H1035.62V91.2H950.623V143H903.023V2.99999H1041.22V35.4ZM1218.87 143L1178.27 85.2L1156.67 104.4V143H1109.27V2.99999H1156.67V54.2L1212.87 2.99999H1271.47L1210.47 57L1274.27 143H1218.87ZM1426.23 110.8V143H1286.23V2.99999H1424.23V35.4H1333.63V55H1418.63V87.4H1333.63V110.8H1426.23ZM1553.83 143L1513.23 85.2L1491.63 104.4V143H1444.23V2.99999H1491.63V54.2L1547.83 2.99999H1606.43L1545.43 57L1609.23 143H1553.83Z" fill="#D3D3D3"/>
</svg>
