<svg width="235" height="235" viewBox="0 0 235 235" fill="none" xmlns="http://www.w3.org/2000/svg">
<path d="M140.142 98.0017L139.215 100.799L142.157 100.628L190.992 97.7803L147.276 119.732L144.642 121.054L146.844 123.013L183.389 155.532L136.955 140.142L134.157 139.215L134.329 142.157L137.176 190.992L115.224 147.276L113.902 144.642L111.943 146.844L79.4248 183.389L94.8144 136.955L95.7415 134.157L92.7996 134.329L43.9647 137.176L87.6805 115.224L90.3141 113.902L88.1126 111.943L51.5678 79.4248L98.0017 94.8144L100.799 95.7415L100.628 92.7996L97.7803 43.9647L119.732 87.6805L121.054 90.3141L123.013 88.1126L155.532 51.5678L140.142 98.0017Z" fill="#90FF58" stroke="#90FF58" stroke-width="4"/>
<path d="M137.049 103.499C135.573 104.17 133.982 104.611 132.334 104.822C134.02 103.806 135.324 102.196 135.937 100.26C134.346 101.219 132.583 101.889 130.724 102.273C129.21 100.624 127.082 99.666 124.667 99.666C120.163 99.666 116.483 103.346 116.483 107.889C116.483 108.54 116.56 109.173 116.694 109.767C109.87 109.422 103.795 106.144 99.7505 101.18C99.0413 102.388 98.6388 103.806 98.6388 105.301C98.6388 108.157 100.076 110.687 102.3 112.124C100.939 112.124 99.6738 111.741 98.5621 111.166V111.224C98.5621 115.21 101.399 118.545 105.155 119.293C103.949 119.623 102.683 119.669 101.456 119.427C101.977 121.061 102.996 122.49 104.372 123.515C105.747 124.539 107.408 125.107 109.123 125.139C106.217 127.439 102.614 128.683 98.9071 128.665C98.2555 128.665 97.6038 128.627 96.9521 128.55C100.594 130.889 104.925 132.249 109.564 132.249C124.667 132.249 132.966 119.714 132.966 108.847C132.966 108.483 132.966 108.138 132.947 107.774C134.557 106.624 135.937 105.167 137.049 103.499Z" fill="#212121"/>
</svg>
