<svg width="203" height="78" viewBox="0 0 203 78" fill="none" xmlns="http://www.w3.org/2000/svg">
<rect width="203" height="78" fill="#90FF58"/>
<path d="M75.72 30C82.29 30 88.95 31.68 88.95 40.5C88.95 49.35 82.29 51 75.72 51H64.5V30H75.72ZM74.13 46.17C78.36 46.17 81.75 45.93 81.75 40.5C81.75 35.1 78.36 34.86 74.13 34.86H71.61V46.17H74.13ZM112.336 46.17V51H91.3359V30H112.036V34.86H98.4459V37.8H111.196V42.66H98.4459V46.17H112.336ZM130.817 40.05L139.907 51H131.747L126.707 44.28L121.697 51H113.537L122.627 40.05L114.287 30H122.447L126.707 35.82L130.967 30H139.157L130.817 40.05Z" fill="#212121"/>
</svg>
