<svg width="809" height="230" viewBox="0 0 809 230" fill="none" xmlns="http://www.w3.org/2000/svg">
<path d="M121.32 185L113.22 165.56H52.38L44.46 185H0L58.14 59H107.46L165.78 185H121.32ZM64.26 136.4H101.52L82.8 90.86L64.26 136.4ZM295.182 118.76C311.382 122.9 321.642 131.54 321.642 147.92C321.642 176.9 302.022 185 262.602 185H174.762V59H266.382C296.622 59 316.962 65.66 316.962 91.4C316.962 106.16 308.682 114.26 295.182 118.58V118.76ZM262.062 88.16H217.422V108.5H262.062C272.682 108.5 275.382 103.82 275.382 98.06C275.382 92.3 272.682 88.16 262.062 88.16ZM264.222 156.02C275.742 156.02 278.442 150.98 278.442 144.32C278.442 138.38 275.382 134.24 264.222 134.24H217.422V156.02H264.222ZM414.429 56.48C455.289 56.48 496.509 73.94 496.509 122C496.509 170.24 455.289 187.7 414.429 187.7C373.569 187.7 332.529 170.24 332.529 122C332.529 73.94 373.569 56.48 414.429 56.48ZM414.429 158.9C439.269 158.9 453.129 145.04 453.129 122C453.129 99.14 439.269 85.28 414.429 85.28C389.769 85.28 375.729 99.14 375.729 122C375.729 145.04 389.769 158.9 414.429 158.9ZM608.235 59H650.895V132.26C650.895 181.04 616.695 187.7 580.875 187.7C545.055 187.7 510.855 181.04 510.855 132.26V59H553.515V128.84C553.515 154.58 563.775 158.9 580.875 158.9C597.795 158.9 608.235 154.58 608.235 128.84V59ZM803.343 59V88.16H755.643V185H712.983V88.16H665.283V59H803.343Z" fill="#90FF58"/>
</svg>
