<svg width="236" height="236" viewBox="0 0 236 236" fill="none" xmlns="http://www.w3.org/2000/svg">
<path d="M136.601 101.578L135.434 104.622L138.676 104.283L188.753 99.0412L142.765 119.541L139.787 120.868L142.32 122.921L181.436 154.625L134.422 136.601L131.377 135.434L131.717 138.676L136.958 188.753L116.459 142.765L115.131 139.787L113.078 142.32L81.3748 181.436L99.3986 134.422L100.566 131.377L97.323 131.717L47.2459 136.958L93.2347 116.459L96.2127 115.131L93.6797 113.078L54.5635 81.3748L101.578 99.3986L104.622 100.566L104.283 97.323L99.0412 47.2458L119.541 93.2347L120.868 96.2127L122.921 93.6797L154.625 54.5635L136.601 101.578Z" fill="#90FF58" stroke="#90FF58" stroke-width="4"/>
<g clip-path="url(#clip0_174_197)">
<path fill-rule="evenodd" clip-rule="evenodd" d="M129.258 104.122C129.711 103.931 130.206 103.865 130.694 103.931C131.181 103.997 131.641 104.192 132.027 104.497C132.413 104.801 132.71 105.203 132.888 105.662C133.066 106.12 133.118 106.618 133.038 107.103L128.88 132.324C128.477 134.757 125.807 136.152 123.576 134.94C121.71 133.926 118.938 132.364 116.444 130.734C115.198 129.918 111.379 127.306 111.848 125.447C112.252 123.857 118.668 117.884 122.335 114.333C123.774 112.938 123.118 112.133 121.418 113.417C117.198 116.603 110.422 121.448 108.182 122.812C106.205 124.015 105.175 124.22 103.943 124.015C101.695 123.641 99.6107 123.062 97.9094 122.356C95.6104 121.403 95.7222 118.242 97.9075 117.322L129.258 104.122Z" fill="#212121"/>
</g>
<defs>
<clipPath id="clip0_174_197">
<rect width="44" height="44" fill="white" transform="translate(93 96)"/>
</clipPath>
</defs>
</svg>
