<svg width="253" height="156" viewBox="0 0 253 156" fill="none" xmlns="http://www.w3.org/2000/svg">
<rect width="253" height="96" fill="#90FF58"/>
<rect x="0.5" y="96.5" width="252" height="59" stroke="#90FF58"/>
<path d="M66.37 46.89C72.94 47.58 77.53 48.03 77.53 53.34C77.53 58.38 73.24 60.45 64.99 60.45C56.11 60.45 52.6 57.6 52.6 53.19H60.04C60.04 55.14 62.44 55.68 65.38 55.68C68.2 55.68 69.88 55.26 69.88 54.09C69.88 52.68 67.84 52.77 61.81 51.84C55.36 50.85 53.08 49.5 53.08 45.3C53.08 41.04 56.47 38.58 64.63 38.58C73.54 38.58 76.18 41.79 76.18 45.42H68.95C68.95 43.98 67.27 43.35 64.54 43.35C61.66 43.35 60.16 43.77 60.16 44.97C60.16 46.41 62.77 46.53 66.37 46.89ZM95.8628 39H102.973V51.21C102.973 59.34 97.2728 60.45 91.3028 60.45C85.3328 60.45 79.6328 59.34 79.6328 51.21V39H86.7428V50.64C86.7428 54.93 88.4528 55.65 91.3028 55.65C94.1228 55.65 95.8628 54.93 95.8628 50.64V39ZM120.881 39C126.671 39 129.581 41.82 129.581 46.11C129.581 51.39 125.831 53.46 120.041 53.46H113.081V60H105.971V39H120.881ZM119.201 48.66C121.421 48.66 122.351 47.73 122.351 46.11C122.351 44.46 121.301 43.86 119.201 43.86H113.081V48.66H119.201ZM146.896 39C152.686 39 155.596 41.82 155.596 46.11C155.596 51.39 151.846 53.46 146.056 53.46H139.096V60H131.986V39H146.896ZM145.216 48.66C147.436 48.66 148.366 47.73 148.366 46.11C148.366 44.46 147.316 43.86 145.216 43.86H139.096V48.66H145.216ZM178.732 55.17V60H158.002V39H165.112V55.17H178.732ZM192.916 39H200.806L191.086 52.56V60H183.976V52.56L174.256 39H182.146L187.516 47.37L192.916 39Z" fill="#212121"/>
<path d="M113.74 116H118.51V137H111.97V121.64L106.9 124.79V120.26L113.74 116ZM141.574 125.96C144.274 126.65 145.984 128.09 145.984 130.82C145.984 135.65 142.714 137 136.144 137H121.504V116H136.774C141.814 116 145.204 117.11 145.204 121.4C145.204 123.86 143.824 125.21 141.574 125.93V125.96ZM136.054 120.86H128.614V124.25H136.054C137.824 124.25 138.274 123.47 138.274 122.51C138.274 121.55 137.824 120.86 136.054 120.86ZM136.414 132.17C138.334 132.17 138.784 131.33 138.784 130.22C138.784 129.23 138.274 128.54 136.414 128.54H128.614V132.17H136.414Z" fill="#90FF58"/>
</svg>
