<svg width="706" height="223" viewBox="0 0 706 223" fill="none" xmlns="http://www.w3.org/2000/svg">
<path d="M9.75 17.375H1.625V15.75H3.25V10.875H0V9.25H11.375V10.875H8.125V15.75H9.75V17.375ZM24.375 17.375H19.5V14.125H17.875V17.375H13V9.25H17.875V12.5H19.5V9.25H24.375V17.375ZM30.875 15.75H37.375V17.375H26V9.25H37.375V10.875H30.875V12.5H35.75V14.125H30.875V15.75ZM56.4126 0.435999L55.8926 7.144H54.4626L53.9426 0.435999H56.4126ZM61.1706 0.435999L60.6506 7.144H59.2206L58.7006 0.435999H61.1706ZM72.6159 17.375H64.4909V15.75H62.8659V10.875H64.4909V9.25H72.6159V10.875H74.2409V12.5H69.3659V10.875H67.7409V15.75H69.3659V14.125H74.2409V15.75H72.6159V17.375ZM85.6159 17.375H77.4909V15.75H75.8659V9.25H80.7409V15.75H82.3659V9.25H87.2409V15.75H85.6159V17.375ZM93.7409 15.75H100.241V17.375H88.8659V9.25H93.7409V15.75ZM111.616 17.375H103.491V15.75H105.116V10.875H101.866V9.25H113.241V10.875H109.991V15.75H111.616V17.375ZM137.868 17.375H129.743V15.75H128.118V10.875H129.743V9.25H137.868V10.875H139.493V15.75H137.868V17.375ZM134.618 15.75V10.875H132.993V15.75H134.618ZM145.993 17.375H141.118V9.25H152.493V10.875H145.993V12.5H150.868V14.125H145.993V17.375ZM178.746 17.375H173.871V15.75H172.246V17.375H167.371V9.25H172.246V10.875H173.871V9.25H178.746V10.875H177.121V12.5H175.496V14.125H177.121V15.75H178.746V17.375ZM185.246 15.75H191.746V17.375H180.371V9.25H191.746V10.875H185.246V12.5H190.121V14.125H185.246V15.75ZM204.746 17.375H199.871V15.75H198.246V17.375H193.371V9.25H198.246V10.875H199.871V9.25H204.746V10.875H203.121V12.5H201.496V14.125H203.121V15.75H204.746V17.375ZM210.531 0.435999L210.011 7.144H208.581L208.061 0.435999H210.531ZM215.289 0.435999L214.769 7.144H213.339L212.819 0.435999H215.289ZM241.612 17.375H236.737V15.75H235.112V17.375H230.237V9.25H239.987V10.875H241.612V14.125H239.987V15.75H241.612V17.375ZM236.737 14.125V10.875H235.112V14.125H236.737ZM248.112 15.75H254.612V17.375H243.237V9.25H254.612V10.875H248.112V12.5H252.987V14.125H248.112V15.75ZM261.112 17.375H256.237V9.25H267.612V10.875H261.112V12.5H265.987V14.125H261.112V17.375ZM274.112 15.75H280.612V17.375H269.237V9.25H280.612V10.875H274.112V12.5H278.987V14.125H274.112V15.75ZM293.612 17.375H288.737V15.75H287.112V17.375H282.237V9.25H291.987V10.875H293.612V14.125H291.987V15.75H293.612V17.375ZM288.737 14.125V10.875H287.112V14.125H288.737ZM304.987 17.375H295.237V15.75H301.737V14.125H296.862V12.5H295.237V10.875H296.862V9.25H306.612V10.875H300.112V12.5H304.987V14.125H306.612V15.75H304.987V17.375ZM331.24 17.375H323.115V15.75H324.74V10.875H321.49V9.25H332.865V10.875H329.615V15.75H331.24V17.375ZM344.24 17.375H336.115V15.75H334.49V10.875H336.115V9.25H344.24V10.875H345.865V15.75H344.24V17.375ZM340.99 15.75V10.875H339.365V15.75H340.99ZM372.117 17.375H367.242V15.75H365.617V17.375H360.742V10.875H362.367V9.25H370.492V10.875H372.117V17.375ZM367.242 14.125V10.875H365.617V14.125H367.242ZM385.117 17.375H381.867V15.75H378.617V14.125H376.992V17.375H373.742V9.25H376.992V10.875H380.242V12.5H381.867V9.25H385.117V17.375ZM404.87 17.375H399.995V9.25H404.87V17.375ZM417.87 17.375H414.62V15.75H411.37V14.125H409.745V17.375H406.495V9.25H409.745V10.875H412.995V12.5H414.62V9.25H417.87V17.375ZM429.245 17.375H421.12V15.75H422.745V10.875H419.495V9.25H430.87V10.875H427.62V15.75H429.245V17.375ZM437.37 15.75H443.87V17.375H432.495V9.25H443.87V10.875H437.37V12.5H442.245V14.125H437.37V15.75ZM456.87 17.375H451.995V15.75H450.37V17.375H445.495V9.25H455.245V10.875H456.87V14.125H455.245V15.75H456.87V17.375ZM451.995 14.125V10.875H450.37V14.125H451.995ZM469.87 17.375H466.62V15.75H463.37V14.125H461.745V17.375H458.495V9.25H461.745V10.875H464.995V12.5H466.62V9.25H469.87V17.375ZM476.37 15.75H482.87V17.375H471.495V9.25H482.87V10.875H476.37V12.5H481.245V14.125H476.37V15.75ZM494.245 17.375H486.12V15.75H487.745V10.875H484.495V9.25H495.87V10.875H492.62V15.75H494.245V17.375ZM515.622 17.375H510.747V9.25H520.497V10.875H522.122V14.125H520.497V15.75H515.622V17.375ZM517.247 14.125V10.875H515.622V14.125H517.247ZM535.122 17.375H530.247V14.125H528.622V17.375H523.747V9.25H528.622V12.5H530.247V9.25H535.122V17.375ZM541.622 15.75H548.122V17.375H536.747V9.25H548.122V10.875H541.622V12.5H546.497V14.125H541.622V15.75ZM561.122 17.375H557.872V15.75H554.622V14.125H552.997V17.375H549.747V9.25H552.997V10.875H556.247V12.5H557.872V9.25H561.122V17.375ZM572.497 17.375H564.372V15.75H562.747V10.875H564.372V9.25H572.497V10.875H574.122V15.75H572.497V17.375ZM569.247 15.75V10.875H567.622V15.75H569.247ZM580.622 15.75V14.125H578.997V17.375H575.747V9.25H578.997V10.875H580.622V12.5H582.247V10.875H583.872V9.25H587.122V17.375H583.872V14.125H582.247V15.75H580.622ZM593.622 15.75H600.122V17.375H588.747V9.25H600.122V10.875H593.622V12.5H598.497V14.125H593.622V15.75ZM613.122 17.375H609.872V15.75H606.622V14.125H604.997V17.375H601.747V9.25H604.997V10.875H608.247V12.5H609.872V9.25H613.122V17.375ZM624.497 17.375H616.372V15.75H614.747V10.875H616.372V9.25H624.497V10.875H626.122V15.75H624.497V17.375ZM621.247 15.75V10.875H619.622V15.75H621.247ZM639.122 17.375H635.872V15.75H632.622V14.125H630.997V17.375H627.747V9.25H630.997V10.875H634.247V12.5H635.872V9.25H639.122V17.375ZM663.75 17.375H655.625V15.75H657.25V10.875H654V9.25H665.375V10.875H662.125V15.75H663.75V17.375ZM678.375 17.375H673.5V14.125H671.875V17.375H667V9.25H671.875V12.5H673.5V9.25H678.375V17.375ZM691.375 17.375H686.5V15.75H684.875V17.375H680V10.875H681.625V9.25H689.75V10.875H691.375V17.375ZM686.5 14.125V10.875H684.875V14.125H686.5ZM702.75 17.375H694.625V15.75H696.25V10.875H693V9.25H704.375V10.875H701.125V15.75H702.75V17.375ZM4.875 35.75H11.375V37.375H0V29.25H11.375V30.875H4.875V32.5H9.75V34.125H4.875V35.75ZM17.875 35.75V34.125H16.25V37.375H13V29.25H16.25V30.875H17.875V32.5H19.5V30.875H21.125V29.25H24.375V37.375H21.125V34.125H19.5V35.75H17.875ZM30.875 35.75H37.375V37.375H26V29.25H37.375V30.875H30.875V32.5H35.75V34.125H30.875V35.75ZM50.375 37.375H45.5V35.75H43.875V37.375H39V29.25H48.75V30.875H50.375V34.125H48.75V35.75H50.375V37.375ZM45.5 34.125V30.875H43.875V34.125H45.5ZM61.75 37.375H53.625V35.75H52V30.875H53.625V29.25H61.75V30.875H56.875V35.75H60.125V34.125H58.5V32.5H63.375V35.75H61.75V37.375ZM69.875 35.75H76.375V37.375H65V29.25H76.375V30.875H69.875V32.5H74.75V34.125H69.875V35.75ZM87.75 37.375H78V29.25H87.75V30.875H89.375V35.75H87.75V37.375ZM84.5 35.75V30.875H82.875V35.75H84.5ZM111.006 37.375H106.131V29.25H111.006V37.375ZM124.006 37.375H120.756V35.75H117.506V34.125H115.881V37.375H112.631V29.25H115.881V30.875H119.131V32.5H120.756V29.25H124.006V37.375ZM150.512 37.375H142.387V35.75H144.012V30.875H140.762V29.25H152.137V30.875H148.887V35.75H150.512V37.375ZM165.137 37.375H160.262V34.125H158.637V37.375H153.762V29.25H158.637V32.5H160.262V29.25H165.137V37.375ZM171.637 35.75H178.137V37.375H166.762V29.25H178.137V30.875H171.637V32.5H176.512V34.125H171.637V35.75ZM199.768 35.75H206.268V37.375H194.893V29.25H206.268V30.875H199.768V32.5H204.643V34.125H199.768V35.75ZM219.268 37.375H214.393V35.75H212.768V37.375H207.893V30.875H209.518V29.25H217.643V30.875H219.268V37.375ZM214.393 34.125V30.875H212.768V34.125H214.393ZM232.268 37.375H227.393V35.75H225.768V37.375H220.893V29.25H230.643V30.875H232.268V34.125H230.643V35.75H232.268V37.375ZM227.393 34.125V30.875H225.768V34.125H227.393ZM238.768 35.75H245.268V37.375H233.893V29.25H238.768V35.75ZM255.018 37.375H250.143V34.125H248.518V32.5H246.893V29.25H250.143V30.875H251.768V32.5H253.393V30.875H255.018V29.25H258.268V32.5H256.643V34.125H255.018V37.375ZM281.525 35.75H286.4V37.375H275.025V35.75H276.65V34.125H279.9V32.5H275.025V30.875H276.65V29.25H284.775V30.875H286.4V32.5H284.775V34.125H281.525V35.75ZM281.525 32.5V30.875H279.9V32.5H281.525ZM297.775 37.375H289.65V35.75H288.025V30.875H289.65V29.25H297.775V30.875H299.4V35.75H297.775V37.375ZM294.525 35.75V30.875H292.9V35.75H294.525ZM307.525 37.375H302.65V32.5H301.025V30.875H302.65V29.25H307.525V37.375ZM318.9 37.375H310.775V35.75H309.15V30.875H310.775V29.25H318.9V30.875H320.525V35.75H318.9V37.375ZM315.65 35.75V30.875H314.025V35.75H315.65ZM331.9 37.375H322.15V35.75H328.65V34.125H323.775V32.5H322.15V30.875H323.775V29.25H333.525V30.875H327.025V32.5H331.9V34.125H333.525V35.75H331.9V37.375ZM340.142 36.27C339.986 36.8767 339.786 37.5353 339.544 38.246C339.301 38.9567 339.032 39.6587 338.738 40.352C338.46 41.0627 338.183 41.73 337.906 42.354H336.216C336.389 41.6953 336.554 40.9847 336.71 40.222C336.883 39.4767 337.039 38.74 337.178 38.012C337.316 37.2667 337.429 36.5907 337.516 35.984H339.96L340.142 36.27ZM362.113 37.375H357.238V29.25H366.988V30.875H368.613V34.125H366.988V35.75H362.113V37.375ZM363.738 34.125V30.875H362.113V34.125H363.738ZM381.613 37.375H376.738V35.75H375.113V37.375H370.238V30.875H371.863V29.25H379.988V30.875H381.613V37.375ZM376.738 34.125V30.875H375.113V34.125H376.738ZM394.613 37.375H389.738V35.75H388.113V37.375H383.238V29.25H392.988V30.875H394.613V34.125H392.988V35.75H394.613V37.375ZM389.738 34.125V30.875H388.113V34.125H389.738ZM405.988 37.375H397.863V35.75H399.488V30.875H396.238V29.25H407.613V30.875H404.363V35.75H405.988V37.375ZM414.113 37.375H409.238V29.25H414.113V37.375ZM425.488 37.375H417.363V35.75H415.738V30.875H417.363V29.25H425.488V30.875H427.113V32.5H422.238V30.875H420.613V35.75H422.238V34.125H427.113V35.75H425.488V37.375ZM438.488 37.375H430.363V35.75H428.738V29.25H433.613V35.75H435.238V29.25H440.113V35.75H438.488V37.375ZM446.613 35.75H453.113V37.375H441.738V29.25H446.613V35.75ZM466.113 37.375H461.238V35.75H459.613V37.375H454.738V30.875H456.363V29.25H464.488V30.875H466.113V37.375ZM461.238 34.125V30.875H459.613V34.125H461.238ZM479.113 37.375H474.238V35.75H472.613V37.375H467.738V29.25H477.488V30.875H479.113V34.125H477.488V35.75H479.113V37.375ZM474.238 34.125V30.875H472.613V34.125H474.238ZM485.613 35.75H492.113V37.375H480.738V29.25H485.613V35.75ZM501.863 37.375H496.988V34.125H495.363V32.5H493.738V29.25H496.988V30.875H498.613V32.5H500.238V30.875H501.863V29.25H505.113V32.5H503.488V34.125H501.863V37.375ZM533.244 37.375H528.369V35.75H526.744V37.375H521.869V30.875H523.494V29.25H531.619V30.875H533.244V37.375ZM528.369 34.125V30.875H526.744V34.125H528.369ZM544.619 37.375H534.869V35.75H541.369V34.125H536.494V32.5H534.869V30.875H536.494V29.25H546.244V30.875H539.744V32.5H544.619V34.125H546.244V35.75H544.619V37.375ZM557.619 37.375H547.869V35.75H554.369V34.125H549.494V32.5H547.869V30.875H549.494V29.25H559.244V30.875H552.744V32.5H557.619V34.125H559.244V35.75H557.619V37.375ZM570.619 37.375H562.494V35.75H560.869V30.875H562.494V29.25H570.619V30.875H572.244V35.75H570.619V37.375ZM567.369 35.75V30.875H565.744V35.75H567.369ZM583.619 37.375H575.494V35.75H573.869V30.875H575.494V29.25H583.619V30.875H585.244V32.5H580.369V30.875H578.744V35.75H580.369V34.125H585.244V35.75H583.619V37.375ZM591.744 37.375H586.869V29.25H591.744V37.375ZM604.744 37.375H599.869V35.75H598.244V37.375H593.369V30.875H594.994V29.25H603.119V30.875H604.744V37.375ZM599.869 34.125V30.875H598.244V34.125H599.869ZM616.119 37.375H607.994V35.75H609.619V30.875H606.369V29.25H617.744V30.875H614.494V35.75H616.119V37.375ZM624.244 35.75H630.744V37.375H619.369V29.25H630.744V30.875H624.244V32.5H629.119V34.125H624.244V35.75ZM642.119 37.375H632.369V29.25H642.119V30.875H643.744V35.75H642.119V37.375ZM638.869 35.75V30.875H637.244V35.75H638.869ZM670.25 37.375H667V35.75H665.375V37.375H662.125V35.75H660.5V29.25H663.75V32.5H665.375V30.875H667V32.5H668.625V29.25H671.875V35.75H670.25V37.375ZM678.375 37.375H673.5V29.25H678.375V37.375ZM689.75 37.375H681.625V35.75H683.25V30.875H680V29.25H691.375V30.875H688.125V35.75H689.75V37.375ZM704.375 37.375H699.5V34.125H697.875V37.375H693V29.25H697.875V32.5H699.5V29.25H704.375V37.375ZM9.75 57.375H1.625V55.75H0V50.875H1.625V49.25H9.75V50.875H11.375V55.75H9.75V57.375ZM6.5 55.75V50.875H4.875V55.75H6.5ZM24.375 57.375H21.125V55.75H17.875V54.125H16.25V57.375H13V49.25H16.25V50.875H19.5V52.5H21.125V49.25H24.375V57.375ZM30.875 55.75H37.375V57.375H26V49.25H30.875V55.75ZM43.875 57.375H39V49.25H43.875V57.375ZM56.875 57.375H53.625V55.75H50.375V54.125H48.75V57.375H45.5V49.25H48.75V50.875H52V52.5H53.625V49.25H56.875V57.375ZM63.375 55.75H69.875V57.375H58.5V49.25H69.875V50.875H63.375V52.5H68.25V54.125H63.375V55.75ZM93.0107 57.375H88.1357V49.25H99.5107V50.875H93.0107V52.5H97.8857V54.125H93.0107V57.375ZM110.886 57.375H102.761V55.75H101.136V50.875H102.761V49.25H110.886V50.875H112.511V55.75H110.886V57.375ZM107.636 55.75V50.875H106.011V55.75H107.636ZM125.511 57.375H120.636V55.75H119.011V57.375H114.136V49.25H123.886V50.875H125.511V54.125H123.886V55.75H125.511V57.375ZM120.636 54.125V50.875H119.011V54.125H120.636ZM136.886 57.375H128.761V55.75H127.136V49.25H132.011V55.75H133.636V49.25H138.511V55.75H136.886V57.375ZM145.011 55.75V54.125H143.386V57.375H140.136V49.25H143.386V50.875H145.011V52.5H146.636V50.875H148.261V49.25H151.511V57.375H148.261V54.125H146.636V55.75H145.011ZM162.886 57.375H153.136V55.75H159.636V54.125H154.761V52.5H153.136V50.875H154.761V49.25H164.511V50.875H158.011V52.5H162.886V54.125H164.511V55.75H162.886V57.375ZM187.646 55.75H194.146V57.375H182.771V49.25H187.646V55.75ZM200.646 57.375H195.771V49.25H200.646V57.375ZM213.646 57.375H208.771V55.75H207.146V57.375H202.271V49.25H207.146V50.875H208.771V49.25H213.646V50.875H212.021V52.5H210.396V54.125H212.021V55.75H213.646V57.375ZM220.146 55.75H226.646V57.375H215.271V49.25H226.646V50.875H220.146V52.5H225.021V54.125H220.146V55.75ZM249.782 54.125V52.5H248.157V50.875H249.782V49.25H254.657V54.125H256.282V55.75H254.657V57.375H249.782V55.75H244.907V54.125H246.532V52.5H248.157V54.125H249.782ZM267.657 57.375H259.532V55.75H257.907V50.875H259.532V49.25H267.657V50.875H269.282V52.5H264.407V50.875H262.782V55.75H264.407V54.125H269.282V55.75H267.657V57.375ZM282.282 57.375H277.407V54.125H275.782V57.375H270.907V49.25H275.782V52.5H277.407V49.25H282.282V57.375ZM295.282 57.375H290.407V55.75H288.782V57.375H283.907V50.875H285.532V49.25H293.657V50.875H295.282V57.375ZM290.407 54.125V50.875H288.782V54.125H290.407ZM308.282 57.375H305.032V55.75H301.782V54.125H300.157V57.375H296.907V49.25H300.157V50.875H303.407V52.5H305.032V49.25H308.282V57.375ZM337.918 57.375H333.043V55.75H331.418V57.375H326.543V50.875H328.168V49.25H336.293V50.875H337.918V57.375ZM333.043 54.125V50.875H331.418V54.125H333.043ZM350.918 57.375H347.668V55.75H344.418V54.125H342.793V57.375H339.543V49.25H342.793V50.875H346.043V52.5H347.668V49.25H350.918V57.375ZM362.293 57.375H352.543V49.25H362.293V50.875H363.918V55.75H362.293V57.375ZM359.043 55.75V50.875H357.418V55.75H359.043ZM387.054 55.75H393.554V57.375H382.179V49.25H387.054V55.75ZM406.554 57.375H401.679V55.75H400.054V57.375H395.179V50.875H396.804V49.25H404.929V50.875H406.554V57.375ZM401.679 54.125V50.875H400.054V54.125H401.679ZM417.929 57.375H409.804V55.75H411.429V50.875H408.179V49.25H419.554V50.875H416.304V55.75H417.929V57.375ZM426.054 55.75H432.554V57.375H421.179V49.25H432.554V50.875H426.054V52.5H430.929V54.125H426.054V55.75ZM445.554 57.375H440.679V55.75H439.054V57.375H434.179V49.25H443.929V50.875H445.554V54.125H443.929V55.75H445.554V57.375ZM440.679 54.125V50.875H439.054V54.125H440.679ZM452.171 56.27C452.015 56.8767 451.815 57.5353 451.573 58.246C451.33 58.9567 451.061 59.6587 450.767 60.352C450.489 61.0627 450.212 61.73 449.935 62.354H448.245C448.418 61.6953 448.583 60.9847 448.739 60.222C448.912 59.4767 449.068 58.74 449.207 58.012C449.345 57.2667 449.458 56.5907 449.545 55.984H451.989L452.171 56.27ZM482.146 57.375H477.271V55.75H475.646V57.375H470.771V49.25H480.521V50.875H482.146V54.125H480.521V55.75H482.146V57.375ZM477.271 54.125V50.875H475.646V54.125H477.271ZM488.646 55.75H495.146V57.375H483.771V49.25H495.146V50.875H488.646V52.5H493.521V54.125H488.646V55.75ZM506.521 57.375H496.771V49.25H506.521V50.875H508.146V55.75H506.521V57.375ZM503.271 55.75V50.875H501.646V55.75H503.271ZM519.521 57.375H509.771V49.25H519.521V50.875H521.146V55.75H519.521V57.375ZM516.271 55.75V50.875H514.646V55.75H516.271ZM527.646 57.375H522.771V49.25H527.646V57.375ZM539.021 57.375H530.896V55.75H532.521V50.875H529.271V49.25H540.646V50.875H537.396V55.75H539.021V57.375ZM544.143 57.596C544.143 56.9547 544.299 56.504 544.611 56.244C544.923 55.984 545.296 55.854 545.729 55.854C546.18 55.854 546.561 55.984 546.873 56.244C547.203 56.504 547.367 56.9547 547.367 57.596C547.367 58.22 547.203 58.6707 546.873 58.948C546.561 59.2253 546.18 59.364 545.729 59.364C545.296 59.364 544.923 59.2253 544.611 58.948C544.299 58.6707 544.143 58.22 544.143 57.596ZM570.739 57.375H565.864V49.25H570.739V57.375ZM582.114 57.375H573.989V55.75H575.614V50.875H572.364V49.25H583.739V50.875H580.489V55.75H582.114V57.375ZM611.75 57.375H603.625V55.75H602V50.875H603.625V49.25H611.75V50.875H613.375V52.5H608.5V50.875H606.875V55.75H608.5V54.125H613.375V55.75H611.75V57.375ZM619.875 55.75H626.375V57.375H615V49.25H626.375V50.875H619.875V52.5H624.75V54.125H619.875V55.75ZM639.375 57.375H636.125V55.75H632.875V54.125H631.25V57.375H628V49.25H631.25V50.875H634.5V52.5H636.125V49.25H639.375V57.375ZM650.75 57.375H642.625V55.75H644.25V50.875H641V49.25H652.375V50.875H649.125V55.75H650.75V57.375ZM658.875 55.75H665.375V57.375H654V49.25H665.375V50.875H658.875V52.5H663.75V54.125H658.875V55.75ZM678.375 57.375H673.5V55.75H671.875V57.375H667V49.25H676.75V50.875H678.375V54.125H676.75V55.75H678.375V57.375ZM673.5 54.125V50.875H671.875V54.125H673.5ZM684.875 55.75H691.375V57.375H680V49.25H691.375V50.875H684.875V52.5H689.75V54.125H684.875V55.75ZM702.75 57.375H693V49.25H702.75V50.875H704.375V55.75H702.75V57.375ZM699.5 55.75V50.875H697.875V55.75H699.5ZM11.375 77.375H6.5V75.75H4.875V77.375H0V70.875H1.625V69.25H9.75V70.875H11.375V77.375ZM6.5 74.125V70.875H4.875V74.125H6.5ZM24.375 77.375H19.5V75.75H17.875V77.375H13V69.25H22.75V70.875H24.375V74.125H22.75V75.75H24.375V77.375ZM19.5 74.125V70.875H17.875V74.125H19.5ZM35.75 77.375H27.625V75.75H26V70.875H27.625V69.25H35.75V70.875H37.375V75.75H35.75V77.375ZM32.5 75.75V70.875H30.875V75.75H32.5ZM48.75 77.375H40.625V75.75H39V69.25H43.875V75.75H45.5V69.25H50.375V75.75H48.75V77.375ZM63.375 77.375H60.125V75.75H56.875V74.125H55.25V77.375H52V69.25H55.25V70.875H58.5V72.5H60.125V69.25H63.375V77.375ZM74.75 77.375H65V69.25H74.75V70.875H76.375V75.75H74.75V77.375ZM71.5 75.75V70.875H69.875V75.75H71.5ZM102.062 77.375H93.9375V75.75H95.5625V70.875H92.3125V69.25H103.688V70.875H100.438V75.75H102.062V77.375ZM116.688 77.375H111.812V74.125H110.188V77.375H105.312V69.25H110.188V72.5H111.812V69.25H116.688V77.375ZM123.188 75.75H129.688V77.375H118.312V69.25H129.688V70.875H123.188V72.5H128.062V74.125H123.188V75.75ZM155.375 77.375H152.125V75.75H150.5V77.375H147.25V75.75H145.625V69.25H148.875V72.5H150.5V70.875H152.125V72.5H153.75V69.25H157V75.75H155.375V77.375ZM168.375 77.375H160.25V75.75H158.625V70.875H160.25V69.25H168.375V70.875H170V75.75H168.375V77.375ZM165.125 75.75V70.875H163.5V75.75H165.125ZM183 77.375H178.125V75.75H176.5V77.375H171.625V69.25H181.375V70.875H183V74.125H181.375V75.75H183V77.375ZM178.125 74.125V70.875H176.5V74.125H178.125ZM194.375 77.375H184.625V75.75H191.125V74.125H186.25V72.5H184.625V70.875H186.25V69.25H196V70.875H189.5V72.5H194.375V74.125H196V75.75H194.375V77.375ZM209 77.375H204.125V74.125H202.5V77.375H197.625V69.25H202.5V72.5H204.125V69.25H209V77.375ZM215.5 77.375H210.625V69.25H215.5V77.375ZM222 77.375H217.125V69.25H226.875V70.875H228.5V74.125H226.875V75.75H222V77.375ZM223.625 74.125V70.875H222V74.125H223.625ZM254.188 77.375H246.062V75.75H244.438V70.875H246.062V69.25H254.188V70.875H255.812V75.75H254.188V77.375ZM250.938 75.75V70.875H249.312V75.75H250.938ZM268.812 77.375H263.938V75.75H262.312V77.375H257.438V69.25H267.188V70.875H268.812V74.125H267.188V75.75H268.812V77.375ZM263.938 74.125V70.875H262.312V74.125H263.938ZM296.125 77.375H291.25V75.75H289.625V77.375H284.75V69.25H294.5V70.875H296.125V74.125H294.5V75.75H296.125V77.375ZM291.25 74.125V70.875H289.625V74.125H291.25ZM302.625 75.75H309.125V77.375H297.75V69.25H309.125V70.875H302.625V72.5H307.5V74.125H302.625V75.75ZM318.875 77.375H314V75.75H312.375V74.125H310.75V69.25H315.625V74.125H317.25V69.25H322.125V74.125H320.5V75.75H318.875V77.375ZM328.625 75.75H335.125V77.375H323.75V69.25H335.125V70.875H328.625V72.5H333.5V74.125H328.625V75.75ZM348.125 77.375H343.25V75.75H341.625V77.375H336.75V69.25H346.5V70.875H348.125V74.125H346.5V75.75H348.125V77.375ZM343.25 74.125V70.875H341.625V74.125H343.25ZM354.625 75.75H361.125V77.375H349.75V69.25H361.125V70.875H354.625V72.5H359.5V74.125H354.625V75.75ZM374.125 77.375H370.875V75.75H367.625V74.125H366V77.375H362.75V69.25H366V70.875H369.25V72.5H370.875V69.25H374.125V77.375ZM385.5 77.375H377.375V75.75H375.75V70.875H377.375V69.25H385.5V70.875H387.125V72.5H382.25V70.875H380.625V75.75H382.25V74.125H387.125V75.75H385.5V77.375ZM393.625 75.75H400.125V77.375H388.75V69.25H400.125V70.875H393.625V72.5H398.5V74.125H393.625V75.75ZM425.812 77.375H417.688V75.75H416.062V70.875H417.688V69.25H425.812V70.875H427.438V75.75H425.812V77.375ZM422.562 75.75V70.875H420.938V75.75H422.562ZM433.938 77.375H429.062V69.25H440.438V70.875H433.938V72.5H438.812V74.125H433.938V77.375ZM466.125 77.375H458V75.75H459.625V70.875H456.375V69.25H467.75V70.875H464.5V75.75H466.125V77.375ZM480.75 77.375H475.875V74.125H474.25V77.375H469.375V69.25H474.25V72.5H475.875V69.25H480.75V77.375ZM487.25 75.75H493.75V77.375H482.375V69.25H493.75V70.875H487.25V72.5H492.125V74.125H487.25V75.75ZM521.062 77.375H516.188V75.75H514.562V77.375H509.688V70.875H511.312V69.25H519.438V70.875H521.062V77.375ZM516.188 74.125V70.875H514.562V74.125H516.188ZM534.062 77.375H530.812V75.75H527.562V74.125H525.938V77.375H522.688V69.25H525.938V70.875H529.188V72.5H530.812V69.25H534.062V77.375ZM545.438 77.375H537.312V75.75H535.688V70.875H537.312V69.25H545.438V70.875H547.062V72.5H542.188V70.875H540.562V75.75H542.188V74.125H547.062V75.75H545.438V77.375ZM553.562 77.375H548.688V69.25H553.562V77.375ZM560.062 75.75H566.562V77.375H555.188V69.25H566.562V70.875H560.062V72.5H564.938V74.125H560.062V75.75ZM579.562 77.375H576.312V75.75H573.062V74.125H571.438V77.375H568.188V69.25H571.438V70.875H574.688V72.5H576.312V69.25H579.562V77.375ZM590.938 77.375H582.812V75.75H584.438V70.875H581.188V69.25H592.562V70.875H589.312V75.75H590.938V77.375ZM613.375 75.75H619.875V77.375H608.5V69.25H619.875V70.875H613.375V72.5H618.25V74.125H613.375V75.75ZM631.25 77.375H623.125V75.75H621.5V70.875H623.125V69.25H631.25V70.875H626.375V75.75H629.625V74.125H628V72.5H632.875V75.75H631.25V77.375ZM642.625 77.375H637.75V74.125H636.125V72.5H634.5V69.25H637.75V70.875H639.375V72.5H641V70.875H642.625V69.25H645.875V72.5H644.25V74.125H642.625V77.375ZM652.375 77.375H647.5V69.25H657.25V70.875H658.875V74.125H657.25V75.75H652.375V77.375ZM654 74.125V70.875H652.375V74.125H654ZM670.25 77.375H662.125V75.75H663.75V70.875H660.5V69.25H671.875V70.875H668.625V75.75H670.25V77.375ZM678.375 77.375H673.5V69.25H678.375V77.375ZM691.375 77.375H686.5V75.75H684.875V77.375H680V70.875H681.625V69.25H689.75V70.875H691.375V77.375ZM686.5 74.125V70.875H684.875V74.125H686.5ZM704.375 77.375H701.125V75.75H697.875V74.125H696.25V77.375H693V69.25H696.25V70.875H699.5V72.5H701.125V69.25H704.375V77.375ZM9.75 97.375H0V89.25H9.75V90.875H11.375V95.75H9.75V97.375ZM6.5 95.75V90.875H4.875V95.75H6.5ZM17.875 95.75H24.375V97.375H13V89.25H24.375V90.875H17.875V92.5H22.75V94.125H17.875V95.75ZM30.875 97.375H26V89.25H30.875V97.375ZM42.25 97.375H34.125V95.75H35.75V90.875H32.5V89.25H43.875V90.875H40.625V95.75H42.25V97.375ZM53.625 97.375H48.75V94.125H47.125V92.5H45.5V89.25H48.75V90.875H50.375V92.5H52V90.875H53.625V89.25H56.875V92.5H55.25V94.125H53.625V97.375ZM96.0474 97.375H91.1724V95.75H89.5474V97.375H84.6724V89.25H89.5474V90.875H91.1724V89.25H96.0474V90.875H94.4224V92.5H92.7974V94.125H94.4224V95.75H96.0474V97.375ZM102.547 95.75H109.047V97.375H97.6724V89.25H109.047V90.875H102.547V92.5H107.422V94.125H102.547V95.75ZM122.047 97.375H117.172V95.75H115.547V97.375H110.672V89.25H115.547V90.875H117.172V89.25H122.047V90.875H120.422V92.5H118.797V94.125H120.422V95.75H122.047V97.375ZM128.664 96.27C128.508 96.8767 128.309 97.5353 128.066 98.246C127.824 98.9567 127.555 99.6587 127.26 100.352C126.983 101.063 126.706 101.73 126.428 102.354H124.738C124.912 101.695 125.076 100.985 125.232 100.222C125.406 99.4767 125.562 98.74 125.7 98.012C125.839 97.2667 125.952 96.5907 126.038 95.984H128.482L128.664 96.27ZM166.552 97.375H158.427V95.75H156.802V90.875H158.427V89.25H166.552V90.875H168.177V95.75H166.552V97.375ZM163.302 95.75V90.875H161.677V95.75H163.302ZM174.677 97.375H169.802V89.25H181.177V90.875H174.677V92.5H179.552V94.125H174.677V97.375ZM192.552 97.375H184.427V95.75H186.052V90.875H182.802V89.25H194.177V90.875H190.927V95.75H192.552V97.375ZM200.677 95.75H207.177V97.375H195.802V89.25H207.177V90.875H200.677V92.5H205.552V94.125H200.677V95.75ZM220.177 97.375H216.927V95.75H213.677V94.125H212.052V97.375H208.802V89.25H212.052V90.875H215.302V92.5H216.927V89.25H220.177V97.375ZM257.724 97.375H247.974V89.25H257.724V90.875H259.349V95.75H257.724V97.375ZM254.474 95.75V90.875H252.849V95.75H254.474ZM265.849 95.75H272.349V97.375H260.974V89.25H272.349V90.875H265.849V92.5H270.724V94.125H265.849V95.75ZM278.849 97.375H273.974V89.25H283.724V90.875H285.349V94.125H283.724V95.75H278.849V97.375ZM280.474 94.125V90.875H278.849V94.125H280.474ZM291.849 97.375H286.974V89.25H291.849V97.375ZM303.224 97.375H295.099V95.75H293.474V90.875H295.099V89.25H303.224V90.875H304.849V92.5H299.974V90.875H298.349V95.75H299.974V94.125H304.849V95.75H303.224V97.375ZM316.224 97.375H308.099V95.75H309.724V90.875H306.474V89.25H317.849V90.875H314.599V95.75H316.224V97.375ZM324.349 95.75H330.849V97.375H319.474V89.25H330.849V90.875H324.349V92.5H329.224V94.125H324.349V95.75ZM342.224 97.375H332.474V89.25H342.224V90.875H343.849V95.75H342.224V97.375ZM338.974 95.75V90.875H337.349V95.75H338.974ZM383.022 97.375H378.147V95.75H376.522V97.375H371.647V90.875H373.272V89.25H381.397V90.875H383.022V97.375ZM378.147 94.125V90.875H376.522V94.125H378.147ZM394.397 97.375H384.647V95.75H391.147V94.125H386.272V92.5H384.647V90.875H386.272V89.25H396.022V90.875H389.522V92.5H394.397V94.125H396.022V95.75H394.397V97.375ZM435.194 97.375H430.319V95.75H428.694V97.375H423.819V90.875H425.444V89.25H433.569V90.875H435.194V97.375ZM430.319 94.125V90.875H428.694V94.125H430.319ZM467.867 97.375H462.992V89.25H474.367V90.875H467.867V92.5H472.742V94.125H467.867V97.375ZM487.367 97.375H482.492V95.75H480.867V97.375H475.992V89.25H485.742V90.875H487.367V94.125H485.742V95.75H487.367V97.375ZM482.492 94.125V90.875H480.867V94.125H482.492ZM498.742 97.375H490.617V95.75H488.992V90.875H490.617V89.25H498.742V90.875H500.367V95.75H498.742V97.375ZM495.492 95.75V90.875H493.867V95.75H495.492ZM511.742 97.375H503.617V95.75H501.992V90.875H503.617V89.25H511.742V90.875H506.867V95.75H510.117V94.125H508.492V92.5H513.367V95.75H511.742V97.375ZM516.032 93.046V91.018H522.324V93.046H516.032ZM534.746 97.375H529.871V94.125H528.246V97.375H523.371V89.25H528.246V92.5H529.871V89.25H534.746V97.375ZM541.246 95.75H547.746V97.375H536.371V89.25H547.746V90.875H541.246V92.5H546.121V94.125H541.246V95.75ZM560.746 97.375H555.871V95.75H554.246V97.375H549.371V90.875H550.996V89.25H559.121V90.875H560.746V97.375ZM555.871 94.125V90.875H554.246V94.125H555.871ZM572.121 97.375H562.371V89.25H572.121V90.875H573.746V95.75H572.121V97.375ZM568.871 95.75V90.875H567.246V95.75H568.871ZM580.246 95.75H586.746V97.375H575.371V89.25H586.746V90.875H580.246V92.5H585.121V94.125H580.246V95.75ZM598.121 97.375H588.371V89.25H598.121V90.875H599.746V95.75H598.121V97.375ZM594.871 95.75V90.875H593.246V95.75H594.871ZM632.418 97.375H627.543V89.25H638.918V90.875H632.418V92.5H637.293V94.125H632.418V97.375ZM645.418 97.375H640.543V89.25H645.418V97.375ZM656.793 97.375H648.668V95.75H647.043V90.875H648.668V89.25H656.793V90.875H651.918V95.75H655.168V94.125H653.543V92.5H658.418V95.75H656.793V97.375ZM669.793 97.375H661.668V95.75H660.043V89.25H664.918V95.75H666.543V89.25H671.418V95.75H669.793V97.375ZM684.418 97.375H679.543V95.75H677.918V97.375H673.043V89.25H682.793V90.875H684.418V94.125H682.793V95.75H684.418V97.375ZM679.543 94.125V90.875H677.918V94.125H679.543ZM690.918 95.75H697.418V97.375H686.043V89.25H697.418V90.875H690.918V92.5H695.793V94.125H690.918V95.75ZM700.915 97.596C700.915 96.9547 701.071 96.504 701.383 96.244C701.695 95.984 702.068 95.854 702.501 95.854C702.952 95.854 703.333 95.984 703.645 96.244C703.974 96.504 704.139 96.9547 704.139 97.596C704.139 98.22 703.974 98.6707 703.645 98.948C703.333 99.2253 702.952 99.364 702.501 99.364C702.068 99.364 701.695 99.2253 701.383 98.948C701.071 98.6707 700.915 98.22 700.915 97.596ZM4.875 117.375H0V109.25H9.75V110.875H11.375V114.125H9.75V115.75H4.875V117.375ZM6.5 114.125V110.875H4.875V114.125H6.5ZM24.375 117.375H19.5V115.75H17.875V117.375H13V110.875H14.625V109.25H22.75V110.875H24.375V117.375ZM19.5 114.125V110.875H17.875V114.125H19.5ZM37.375 117.375H32.5V115.75H30.875V117.375H26V109.25H35.75V110.875H37.375V114.125H35.75V115.75H37.375V117.375ZM32.5 114.125V110.875H30.875V114.125H32.5ZM48.75 117.375H40.625V115.75H42.25V110.875H39V109.25H50.375V110.875H47.125V115.75H48.75V117.375ZM56.875 117.375H52V109.25H56.875V117.375ZM68.25 117.375H60.125V115.75H58.5V110.875H60.125V109.25H68.25V110.875H69.875V112.5H65V110.875H63.375V115.75H65V114.125H69.875V115.75H68.25V117.375ZM76.375 117.375H71.5V109.25H76.375V117.375ZM82.875 117.375H78V109.25H87.75V110.875H89.375V114.125H87.75V115.75H82.875V117.375ZM84.5 114.125V110.875H82.875V114.125H84.5ZM102.375 117.375H97.5V115.75H95.875V117.375H91V110.875H92.625V109.25H100.75V110.875H102.375V117.375ZM97.5 114.125V110.875H95.875V114.125H97.5ZM115.375 117.375H112.125V115.75H108.875V114.125H107.25V117.375H104V109.25H107.25V110.875H110.5V112.5H112.125V109.25H115.375V117.375ZM126.75 117.375H118.625V115.75H120.25V110.875H117V109.25H128.375V110.875H125.125V115.75H126.75V117.375ZM139.75 117.375H130V115.75H136.5V114.125H131.625V112.5H130V110.875H131.625V109.25H141.375V110.875H134.875V112.5H139.75V114.125H141.375V115.75H139.75V117.375ZM168.169 117.375H160.044V115.75H158.419V110.875H160.044V109.25H168.169V110.875H169.794V115.75H168.169V117.375ZM164.919 115.75V110.875H163.294V115.75H164.919ZM176.294 117.375H171.419V109.25H182.794V110.875H176.294V112.5H181.169V114.125H176.294V117.375ZM209.589 117.375H201.464V115.75H203.089V110.875H199.839V109.25H211.214V110.875H207.964V115.75H209.589V117.375ZM224.214 117.375H219.339V114.125H217.714V117.375H212.839V109.25H217.714V112.5H219.339V109.25H224.214V117.375ZM230.714 115.75H237.214V117.375H225.839V109.25H237.214V110.875H230.714V112.5H235.589V114.125H230.714V115.75ZM258.418 100.436L257.898 107.144H256.468L255.948 100.436H258.418ZM263.176 100.436L262.656 107.144H261.226L260.706 100.436H263.176ZM274.621 117.375H266.496V115.75H264.871V110.875H266.496V109.25H274.621V110.875H276.246V112.5H271.371V110.875H269.746V115.75H271.371V114.125H276.246V115.75H274.621V117.375ZM287.621 117.375H279.496V115.75H277.871V109.25H282.746V115.75H284.371V109.25H289.246V115.75H287.621V117.375ZM295.746 115.75H302.246V117.375H290.871V109.25H295.746V115.75ZM313.621 117.375H305.496V115.75H307.121V110.875H303.871V109.25H315.246V110.875H311.996V115.75H313.621V117.375ZM342.04 117.375H333.915V115.75H332.29V110.875H333.915V109.25H342.04V110.875H343.665V115.75H342.04V117.375ZM338.79 115.75V110.875H337.165V115.75H338.79ZM350.165 117.375H345.29V109.25H356.665V110.875H350.165V112.5H355.04V114.125H350.165V117.375ZM385.085 117.375H380.21V115.75H378.585V117.375H373.71V109.25H378.585V110.875H380.21V109.25H385.085V110.875H383.46V112.5H381.835V114.125H383.46V115.75H385.085V117.375ZM391.585 115.75H398.085V117.375H386.71V109.25H398.085V110.875H391.585V112.5H396.46V114.125H391.585V115.75ZM411.085 117.375H406.21V115.75H404.585V117.375H399.71V109.25H404.585V110.875H406.21V109.25H411.085V110.875H409.46V112.5H407.835V114.125H409.46V115.75H411.085V117.375ZM416.87 100.436L416.35 107.144H414.92L414.4 100.436H416.87ZM421.628 100.436L421.108 107.144H419.678L419.158 100.436H421.628ZM448.492 117.375H440.367V115.75H438.742V110.875H440.367V109.25H448.492V110.875H450.117V115.75H448.492V117.375ZM445.242 115.75V110.875H443.617V115.75H445.242ZM456.617 117.375H451.742V109.25H463.117V110.875H456.617V112.5H461.492V114.125H456.617V117.375ZM474.492 117.375H466.367V115.75H467.992V110.875H464.742V109.25H476.117V110.875H472.867V115.75H474.492V117.375ZM482.617 115.75H489.117V117.375H477.742V109.25H489.117V110.875H482.617V112.5H487.492V114.125H482.617V115.75ZM502.117 117.375H498.867V115.75H495.617V114.125H493.992V117.375H490.742V109.25H493.992V110.875H497.242V112.5H498.867V109.25H502.117V117.375ZM528.911 117.375H520.786V115.75H519.161V109.25H524.036V115.75H525.661V109.25H530.536V115.75H528.911V117.375ZM541.911 117.375H532.161V115.75H538.661V114.125H533.786V112.5H532.161V110.875H533.786V109.25H543.536V110.875H537.036V112.5H541.911V114.125H543.536V115.75H541.911V117.375ZM550.036 115.75H556.536V117.375H545.161V109.25H556.536V110.875H550.036V112.5H554.911V114.125H550.036V115.75ZM567.911 117.375H558.161V109.25H567.911V110.875H569.536V115.75H567.911V117.375ZM564.661 115.75V110.875H563.036V115.75H564.661ZM591.456 115.75V114.125H589.831V117.375H586.581V109.25H589.831V110.875H591.456V112.5H593.081V110.875H594.706V109.25H597.956V117.375H594.706V114.125H593.081V115.75H591.456ZM604.456 115.75H610.956V117.375H599.581V109.25H610.956V110.875H604.456V112.5H609.331V114.125H604.456V115.75ZM617.456 115.75V114.125H615.831V117.375H612.581V109.25H615.831V110.875H617.456V112.5H619.081V110.875H620.706V109.25H623.956V117.375H620.706V114.125H619.081V115.75H617.456ZM630.456 115.75H636.956V117.375H625.581V109.25H636.956V110.875H630.456V112.5H635.331V114.125H630.456V115.75ZM648.331 117.375H638.581V115.75H645.081V114.125H640.206V112.5H638.581V110.875H640.206V109.25H649.956V110.875H643.456V112.5H648.331V114.125H649.956V115.75H648.331V117.375ZM678.375 117.375H673.5V115.75H671.875V117.375H667V110.875H668.625V109.25H676.75V110.875H678.375V117.375ZM673.5 114.125V110.875H671.875V114.125H673.5ZM691.375 117.375H688.125V115.75H684.875V114.125H683.25V117.375H680V109.25H683.25V110.875H686.5V112.5H688.125V109.25H691.375V117.375ZM702.75 117.375H693V109.25H702.75V110.875H704.375V115.75H702.75V117.375ZM699.5 115.75V110.875H697.875V115.75H699.5ZM4.875 137.375H0V129.25H4.875V137.375ZM17.875 137.375H13V135.75H11.375V137.375H6.5V129.25H16.25V130.875H17.875V134.125H16.25V135.75H17.875V137.375ZM13 134.125V130.875H11.375V134.125H13ZM29.25 137.375H21.125V135.75H19.5V130.875H21.125V129.25H29.25V130.875H30.875V135.75H29.25V137.375ZM26 135.75V130.875H24.375V135.75H26ZM43.875 137.375H40.625V135.75H37.375V134.125H35.75V137.375H32.5V129.25H35.75V130.875H39V132.5H40.625V129.25H43.875V137.375ZM50.375 137.375H45.5V129.25H50.375V137.375ZM61.75 137.375H53.625V135.75H52V130.875H53.625V129.25H61.75V130.875H63.375V132.5H58.5V130.875H56.875V135.75H58.5V134.125H63.375V135.75H61.75V137.375ZM91.4429 137.375H86.5679V134.125H84.9429V137.375H80.0679V129.25H84.9429V132.5H86.5679V129.25H91.4429V137.375ZM102.818 137.375H94.6929V135.75H93.0679V129.25H97.9429V135.75H99.5679V129.25H104.443V135.75H102.818V137.375ZM110.943 135.75V134.125H109.318V137.375H106.068V129.25H109.318V130.875H110.943V132.5H112.568V130.875H114.193V129.25H117.443V137.375H114.193V134.125H112.568V135.75H110.943ZM128.818 137.375H120.693V135.75H119.068V130.875H120.693V129.25H128.818V130.875H130.443V135.75H128.818V137.375ZM125.568 135.75V130.875H123.943V135.75H125.568ZM143.443 137.375H138.568V135.75H136.943V137.375H132.068V129.25H141.818V130.875H143.443V134.125H141.818V135.75H143.443V137.375ZM138.568 134.125V130.875H136.943V134.125H138.568ZM169.886 137.375H161.761V135.75H163.386V130.875H160.136V129.25H171.511V130.875H168.261V135.75H169.886V137.375ZM182.886 137.375H174.761V135.75H173.136V130.875H174.761V129.25H182.886V130.875H184.511V135.75H182.886V137.375ZM179.636 135.75V130.875H178.011V135.75H179.636ZM206.079 135.75H212.579V137.375H201.204V129.25H212.579V130.875H206.079V132.5H210.954V134.125H206.079V135.75ZM225.579 137.375H220.704V135.75H219.079V137.375H214.204V135.75H215.829V134.125H217.454V132.5H215.829V130.875H214.204V129.25H219.079V130.875H220.704V129.25H225.579V130.875H223.954V132.5H222.329V134.125H223.954V135.75H225.579V137.375ZM232.079 137.375H227.204V129.25H236.954V130.875H238.579V134.125H236.954V135.75H232.079V137.375ZM233.704 134.125V130.875H232.079V134.125H233.704ZM251.579 137.375H246.704V135.75H245.079V137.375H240.204V129.25H249.954V130.875H251.579V134.125H249.954V135.75H251.579V137.375ZM246.704 134.125V130.875H245.079V134.125H246.704ZM258.079 135.75H264.579V137.375H253.204V129.25H264.579V130.875H258.079V132.5H262.954V134.125H258.079V135.75ZM275.954 137.375H266.204V135.75H272.704V134.125H267.829V132.5H266.204V130.875H267.829V129.25H277.579V130.875H271.079V132.5H275.954V134.125H277.579V135.75H275.954V137.375ZM288.954 137.375H279.204V135.75H285.704V134.125H280.829V132.5H279.204V130.875H280.829V129.25H290.579V130.875H284.079V132.5H288.954V134.125H290.579V135.75H288.954V137.375ZM317.021 137.375H308.896V135.75H310.521V130.875H307.271V129.25H318.646V130.875H315.396V135.75H317.021V137.375ZM331.646 137.375H326.771V134.125H325.146V137.375H320.271V129.25H325.146V132.5H326.771V129.25H331.646V137.375ZM338.146 135.75H344.646V137.375H333.271V129.25H344.646V130.875H338.146V132.5H343.021V134.125H338.146V135.75ZM351.146 137.375H346.271V129.25H351.146V137.375ZM364.146 137.375H359.271V135.75H357.646V137.375H352.771V129.25H362.521V130.875H364.146V134.125H362.521V135.75H364.146V137.375ZM359.271 134.125V130.875H357.646V134.125H359.271ZM390.589 137.375H380.839V129.25H390.589V130.875H392.214V135.75H390.589V137.375ZM387.339 135.75V130.875H385.714V135.75H387.339ZM398.714 135.75H405.214V137.375H393.839V129.25H405.214V130.875H398.714V132.5H403.589V134.125H398.714V135.75ZM414.964 137.375H410.089V135.75H408.464V134.125H406.839V129.25H411.714V134.125H413.339V129.25H418.214V134.125H416.589V135.75H414.964V137.375ZM429.589 137.375H421.464V135.75H419.839V130.875H421.464V129.25H429.589V130.875H431.214V135.75H429.589V137.375ZM426.339 135.75V130.875H424.714V135.75H426.339ZM442.589 137.375H434.464V135.75H436.089V130.875H432.839V129.25H444.214V130.875H440.964V135.75H442.589V137.375ZM450.714 137.375H445.839V129.25H450.714V137.375ZM462.089 137.375H453.964V135.75H452.339V130.875H453.964V129.25H462.089V130.875H463.714V135.75H462.089V137.375ZM458.839 135.75V130.875H457.214V135.75H458.839ZM476.714 137.375H473.464V135.75H470.214V134.125H468.589V137.375H465.339V129.25H468.589V130.875H471.839V132.5H473.464V129.25H476.714V137.375ZM503.157 137.375H495.032V135.75H496.657V130.875H493.407V129.25H504.782V130.875H501.532V135.75H503.157V137.375ZM516.157 137.375H508.032V135.75H506.407V130.875H508.032V129.25H516.157V130.875H517.782V135.75H516.157V137.375ZM512.907 135.75V130.875H511.282V135.75H512.907ZM545.85 137.375H540.975V135.75H539.35V137.375H534.475V129.25H539.35V130.875H540.975V129.25H545.85V130.875H544.225V132.5H542.6V134.125H544.225V135.75H545.85V137.375ZM552.35 135.75H558.85V137.375H547.475V129.25H558.85V130.875H552.35V132.5H557.225V134.125H552.35V135.75ZM571.85 137.375H566.975V135.75H565.35V137.375H560.475V129.25H565.35V130.875H566.975V129.25H571.85V130.875H570.225V132.5H568.6V134.125H570.225V135.75H571.85V137.375ZM578.467 136.27C578.311 136.877 578.112 137.535 577.869 138.246C577.626 138.957 577.358 139.659 577.063 140.352C576.786 141.063 576.508 141.73 576.231 142.354H574.541C574.714 141.695 574.879 140.985 575.035 140.222C575.208 139.477 575.364 138.74 575.503 138.012C575.642 137.267 575.754 136.591 575.841 135.984H578.285L578.467 136.27ZM605.25 137.375H595.5V135.75H602V134.125H597.125V132.5H595.5V130.875H597.125V129.25H606.875V130.875H600.375V132.5H605.25V134.125H606.875V135.75H605.25V137.375ZM618.25 137.375H610.125V135.75H608.5V130.875H610.125V129.25H618.25V130.875H619.875V135.75H618.25V137.375ZM615 135.75V130.875H613.375V135.75H615ZM626.375 135.75V134.125H624.75V137.375H621.5V129.25H624.75V130.875H626.375V132.5H628V130.875H629.625V129.25H632.875V137.375H629.625V134.125H628V135.75H626.375ZM639.375 135.75H645.875V137.375H634.5V129.25H645.875V130.875H639.375V132.5H644.25V134.125H639.375V135.75ZM657.25 137.375H649.125V135.75H650.75V130.875H647.5V129.25H658.875V130.875H655.625V135.75H657.25V137.375ZM665.375 137.375H660.5V129.25H665.375V137.375ZM671.875 135.75V134.125H670.25V137.375H667V129.25H670.25V130.875H671.875V132.5H673.5V130.875H675.125V129.25H678.375V137.375H675.125V134.125H673.5V135.75H671.875ZM684.875 135.75H691.375V137.375H680V129.25H691.375V130.875H684.875V132.5H689.75V134.125H684.875V135.75ZM702.75 137.375H693V135.75H699.5V134.125H694.625V132.5H693V130.875H694.625V129.25H704.375V130.875H697.875V132.5H702.75V134.125H704.375V135.75H702.75V137.375ZM4.875 155.75H11.375V157.375H0V149.25H4.875V155.75ZM17.875 157.375H13V149.25H17.875V157.375ZM30.875 157.375H27.625V155.75H24.375V154.125H22.75V157.375H19.5V149.25H22.75V150.875H26V152.5H27.625V149.25H30.875V157.375ZM43.875 157.375H39V155.75H37.375V157.375H32.5V149.25H37.375V150.875H39V149.25H43.875V150.875H42.25V152.5H40.625V154.125H42.25V155.75H43.875V157.375ZM50.375 157.375H45.5V149.25H50.375V157.375ZM63.375 157.375H60.125V155.75H56.875V154.125H55.25V157.375H52V149.25H55.25V150.875H58.5V152.5H60.125V149.25H63.375V157.375ZM74.75 157.375H66.625V155.75H65V150.875H66.625V149.25H74.75V150.875H69.875V155.75H73.125V154.125H71.5V152.5H76.375V155.75H74.75V157.375ZM101.024 157.375H96.149V149.25H101.024V157.375ZM112.399 157.375H104.274V155.75H105.899V150.875H102.649V149.25H114.024V150.875H110.774V155.75H112.399V157.375ZM143.548 157.375H135.423V155.75H137.048V150.875H133.798V149.25H145.173V150.875H141.923V155.75H143.548V157.375ZM156.548 157.375H148.423V155.75H146.798V150.875H148.423V149.25H156.548V150.875H158.173V155.75H156.548V157.375ZM153.298 155.75V150.875H151.673V155.75H153.298ZM182.822 157.375H177.947V149.25H182.822V157.375ZM195.822 157.375H192.572V155.75H189.322V154.125H187.697V157.375H184.447V149.25H187.697V150.875H190.947V152.5H192.572V149.25H195.822V157.375ZM207.197 157.375H199.072V155.75H200.697V150.875H197.447V149.25H208.822V150.875H205.572V155.75H207.197V157.375ZM215.322 155.75H221.822V157.375H210.447V149.25H221.822V150.875H215.322V152.5H220.197V154.125H215.322V155.75ZM234.822 157.375H229.947V155.75H228.322V157.375H223.447V149.25H233.197V150.875H234.822V154.125H233.197V155.75H234.822V157.375ZM229.947 154.125V150.875H228.322V154.125H229.947ZM247.822 157.375H244.572V155.75H241.322V154.125H239.697V157.375H236.447V149.25H239.697V150.875H242.947V152.5H244.572V149.25H247.822V157.375ZM254.322 155.75H260.822V157.375H249.447V149.25H260.822V150.875H254.322V152.5H259.197V154.125H254.322V155.75ZM272.197 157.375H264.072V155.75H265.697V150.875H262.447V149.25H273.822V150.875H270.572V155.75H272.197V157.375ZM303.346 157.375H295.221V155.75H293.596V150.875H295.221V149.25H303.346V150.875H304.971V152.5H300.096V150.875H298.471V155.75H300.096V154.125H304.971V155.75H303.346V157.375ZM316.346 157.375H308.221V155.75H306.596V149.25H311.471V155.75H313.096V149.25H317.971V155.75H316.346V157.375ZM324.471 155.75H330.971V157.375H319.596V149.25H324.471V155.75ZM342.346 157.375H334.221V155.75H335.846V150.875H332.596V149.25H343.971V150.875H340.721V155.75H342.346V157.375ZM355.346 157.375H347.221V155.75H345.596V149.25H350.471V155.75H352.096V149.25H356.971V155.75H355.346V157.375ZM369.971 157.375H365.096V155.75H363.471V157.375H358.596V149.25H368.346V150.875H369.971V154.125H368.346V155.75H369.971V157.375ZM365.096 154.125V150.875H363.471V154.125H365.096ZM376.471 155.75H382.971V157.375H371.596V149.25H382.971V150.875H376.471V152.5H381.346V154.125H376.471V155.75ZM414.12 157.375H409.245V155.75H407.62V157.375H402.745V150.875H404.37V149.25H412.495V150.875H414.12V157.375ZM409.245 154.125V150.875H407.62V154.125H409.245ZM427.12 157.375H423.87V155.75H420.62V154.125H418.995V157.375H415.745V149.25H418.995V150.875H422.245V152.5H423.87V149.25H427.12V157.375ZM438.495 157.375H428.745V149.25H438.495V150.875H440.12V155.75H438.495V157.375ZM435.245 155.75V150.875H433.62V155.75H435.245ZM464.769 157.375H459.894V149.25H469.644V150.875H471.269V154.125H469.644V155.75H464.769V157.375ZM466.394 154.125V150.875H464.769V154.125H466.394ZM482.644 157.375H474.519V155.75H472.894V150.875H474.519V149.25H482.644V150.875H484.269V155.75H482.644V157.375ZM479.394 155.75V150.875H477.769V155.75H479.394ZM490.769 155.75H497.269V157.375H485.894V149.25H490.769V155.75ZM503.769 157.375H498.894V149.25H503.769V157.375ZM515.144 157.375H507.019V155.75H508.644V150.875H505.394V149.25H516.769V150.875H513.519V155.75H515.144V157.375ZM523.269 157.375H518.394V149.25H523.269V157.375ZM534.644 157.375H526.519V155.75H524.894V150.875H526.519V149.25H534.644V150.875H536.269V152.5H531.394V150.875H529.769V155.75H531.394V154.125H536.269V155.75H534.644V157.375ZM549.269 157.375H544.394V155.75H542.769V157.375H537.894V150.875H539.519V149.25H547.644V150.875H549.269V157.375ZM544.394 154.125V150.875H542.769V154.125H544.394ZM555.769 155.75H562.269V157.375H550.894V149.25H555.769V155.75ZM586.918 155.75V154.125H585.293V157.375H582.043V149.25H585.293V150.875H586.918V152.5H588.543V150.875H590.168V149.25H593.418V157.375H590.168V154.125H588.543V155.75H586.918ZM604.793 157.375H596.668V155.75H595.043V150.875H596.668V149.25H604.793V150.875H606.418V155.75H604.793V157.375ZM601.543 155.75V150.875H599.918V155.75H601.543ZM616.168 157.375H611.293V155.75H609.668V154.125H608.043V149.25H612.918V154.125H614.543V149.25H619.418V154.125H617.793V155.75H616.168V157.375ZM625.918 155.75H632.418V157.375H621.043V149.25H632.418V150.875H625.918V152.5H630.793V154.125H625.918V155.75ZM638.918 155.75V154.125H637.293V157.375H634.043V149.25H637.293V150.875H638.918V152.5H640.543V150.875H642.168V149.25H645.418V157.375H642.168V154.125H640.543V155.75H638.918ZM651.918 155.75H658.418V157.375H647.043V149.25H658.418V150.875H651.918V152.5H656.793V154.125H651.918V155.75ZM671.418 157.375H668.168V155.75H664.918V154.125H663.293V157.375H660.043V149.25H663.293V150.875H666.543V152.5H668.168V149.25H671.418V157.375ZM682.793 157.375H674.668V155.75H676.293V150.875H673.043V149.25H684.418V150.875H681.168V155.75H682.793V157.375ZM695.793 157.375H686.043V155.75H692.543V154.125H687.668V152.5H686.043V150.875H687.668V149.25H697.418V150.875H690.918V152.5H695.793V154.125H697.418V155.75H695.793V157.375ZM704.035 156.27C703.879 156.877 703.68 157.535 703.437 158.246C703.194 158.957 702.926 159.659 702.631 160.352C702.354 161.063 702.076 161.73 701.799 162.354H700.109C700.282 161.695 700.447 160.985 700.603 160.222C700.776 159.477 700.932 158.74 701.071 158.012C701.21 157.267 701.322 156.591 701.409 155.984H703.853L704.035 156.27ZM11.375 177.375H8.125V175.75H4.875V174.125H3.25V177.375H0V169.25H3.25V170.875H6.5V172.5H8.125V169.25H11.375V177.375ZM22.75 177.375H14.625V175.75H13V170.875H14.625V169.25H22.75V170.875H24.375V175.75H22.75V177.375ZM19.5 175.75V170.875H17.875V175.75H19.5ZM35.75 177.375H27.625V175.75H29.25V170.875H26V169.25H37.375V170.875H34.125V175.75H35.75V177.375ZM50.375 177.375H45.5V175.75H43.875V177.375H39V170.875H40.625V169.25H48.75V170.875H50.375V177.375ZM45.5 174.125V170.875H43.875V174.125H45.5ZM61.75 177.375H52V169.25H61.75V170.875H63.375V172.5H61.75V174.125H63.375V175.75H61.75V177.375ZM58.5 172.5V170.875H56.875V172.5H58.5ZM58.5 175.75V174.125H56.875V175.75H58.5ZM69.875 175.75H76.375V177.375H65V169.25H69.875V175.75ZM86.125 177.375H81.25V174.125H79.625V172.5H78V169.25H81.25V170.875H82.875V172.5H84.5V170.875H86.125V169.25H89.375V172.5H87.75V174.125H86.125V177.375ZM109.299 177.375H99.5488V169.25H109.299V170.875H110.924V175.75H109.299V177.375ZM106.049 175.75V170.875H104.424V175.75H106.049ZM122.299 177.375H114.174V175.75H112.549V169.25H117.424V175.75H119.049V169.25H123.924V175.75H122.299V177.375ZM136.924 177.375H132.049V175.75H130.424V177.375H125.549V169.25H135.299V170.875H136.924V174.125H135.299V175.75H136.924V177.375ZM132.049 174.125V170.875H130.424V174.125H132.049ZM143.424 177.375H138.549V169.25H143.424V177.375ZM156.424 177.375H153.174V175.75H149.924V174.125H148.299V177.375H145.049V169.25H148.299V170.875H151.549V172.5H153.174V169.25H156.424V177.375ZM167.799 177.375H159.674V175.75H158.049V170.875H159.674V169.25H167.799V170.875H162.924V175.75H166.174V174.125H164.549V172.5H169.424V175.75H167.799V177.375ZM189.348 177.375H181.223V175.75H182.848V170.875H179.598V169.25H190.973V170.875H187.723V175.75H189.348V177.375ZM203.973 177.375H199.098V174.125H197.473V177.375H192.598V169.25H197.473V172.5H199.098V169.25H203.973V177.375ZM210.473 175.75H216.973V177.375H205.598V169.25H216.973V170.875H210.473V172.5H215.348V174.125H210.473V175.75ZM233.646 175.75H238.521V177.375H227.146V175.75H228.771V174.125H232.021V172.5H227.146V170.875H228.771V169.25H236.896V170.875H238.521V172.5H236.896V174.125H233.646V175.75ZM233.646 172.5V170.875H232.021V172.5H233.646ZM249.896 177.375H241.771V175.75H240.146V170.875H241.771V169.25H249.896V170.875H251.521V175.75H249.896V177.375ZM246.646 175.75V170.875H245.021V175.75H246.646ZM259.646 177.375H254.771V172.5H253.146V170.875H254.771V169.25H259.646V177.375ZM271.021 177.375H262.896V175.75H261.271V170.875H262.896V169.25H271.021V170.875H266.146V172.5H271.021V174.125H272.646V175.75H271.021V177.375ZM267.771 175.75V174.125H266.146V175.75H267.771ZM292.57 177.375H284.445V175.75H282.82V169.25H287.695V175.75H289.32V169.25H294.195V175.75H292.57V177.375ZM297.692 177.596C297.692 176.955 297.848 176.504 298.16 176.244C298.472 175.984 298.845 175.854 299.278 175.854C299.729 175.854 300.11 175.984 300.422 176.244C300.752 176.504 300.916 176.955 300.916 177.596C300.916 178.22 300.752 178.671 300.422 178.948C300.11 179.225 299.729 179.364 299.278 179.364C298.845 179.364 298.472 179.225 298.16 178.948C297.848 178.671 297.692 178.22 297.692 177.596ZM312.527 177.375H302.777V175.75H309.277V174.125H304.402V172.5H302.777V170.875H304.402V169.25H314.152V170.875H307.652V172.5H312.527V174.125H314.152V175.75H312.527V177.375ZM317.649 177.596C317.649 176.955 317.805 176.504 318.117 176.244C318.429 175.984 318.802 175.854 319.235 175.854C319.686 175.854 320.067 175.984 320.379 176.244C320.709 176.504 320.873 176.955 320.873 177.596C320.873 178.22 320.709 178.671 320.379 178.948C320.067 179.225 319.686 179.364 319.235 179.364C318.802 179.364 318.429 179.225 318.117 178.948C317.805 178.671 317.649 178.22 317.649 177.596ZM336.158 177.375H331.283V169.25H341.033V170.875H342.658V174.125H341.033V175.75H336.158V177.375ZM337.783 174.125V170.875H336.158V174.125H337.783ZM355.658 177.375H350.783V175.75H349.158V177.375H344.283V169.25H354.033V170.875H355.658V174.125H354.033V175.75H355.658V177.375ZM350.783 174.125V170.875H349.158V174.125H350.783ZM362.158 175.75H368.658V177.375H357.283V169.25H368.658V170.875H362.158V172.5H367.033V174.125H362.158V175.75ZM380.033 177.375H370.283V175.75H376.783V174.125H371.908V172.5H370.283V170.875H371.908V169.25H381.658V170.875H375.158V172.5H380.033V174.125H381.658V175.75H380.033V177.375ZM388.158 177.375H383.283V169.25H388.158V177.375ZM399.533 177.375H389.783V169.25H399.533V170.875H401.158V175.75H399.533V177.375ZM396.283 175.75V170.875H394.658V175.75H396.283ZM407.658 175.75H414.158V177.375H402.783V169.25H414.158V170.875H407.658V172.5H412.533V174.125H407.658V175.75ZM427.158 177.375H423.908V175.75H420.658V174.125H419.033V177.375H415.783V169.25H419.033V170.875H422.283V172.5H423.908V169.25H427.158V177.375ZM438.533 177.375H430.408V175.75H432.033V170.875H428.783V169.25H440.158V170.875H436.908V175.75H438.533V177.375ZM446.658 177.375H441.783V169.25H446.658V177.375ZM459.658 177.375H454.783V175.75H453.158V177.375H448.283V170.875H449.908V169.25H458.033V170.875H459.658V177.375ZM454.783 174.125V170.875H453.158V174.125H454.783ZM466.158 175.75H472.658V177.375H461.283V169.25H466.158V175.75ZM487.707 175.75H494.207V177.375H482.832V169.25H494.207V170.875H487.707V172.5H492.582V174.125H487.707V175.75ZM500.707 175.75H507.207V177.375H495.832V169.25H500.707V175.75ZM513.707 175.75H520.207V177.375H508.832V169.25H520.207V170.875H513.707V172.5H518.582V174.125H513.707V175.75ZM531.582 177.375H523.457V175.75H521.832V170.875H523.457V169.25H531.582V170.875H533.207V172.5H528.332V170.875H526.707V175.75H528.332V174.125H533.207V175.75H531.582V177.375ZM544.582 177.375H536.457V175.75H538.082V170.875H534.832V169.25H546.207V170.875H542.957V175.75H544.582V177.375ZM552.707 177.375H547.832V169.25H552.707V177.375ZM564.082 177.375H555.957V175.75H554.332V170.875H555.957V169.25H564.082V170.875H565.707V175.75H564.082V177.375ZM560.832 175.75V170.875H559.207V175.75H560.832ZM578.707 177.375H575.457V175.75H572.207V174.125H570.582V177.375H567.332V169.25H570.582V170.875H573.832V172.5H575.457V169.25H578.707V177.375ZM582.204 177.596C582.204 176.955 582.36 176.504 582.672 176.244C582.984 175.984 583.357 175.854 583.79 175.854C584.241 175.854 584.622 175.984 584.934 176.244C585.263 176.504 585.428 176.955 585.428 177.596C585.428 178.22 585.263 178.671 584.934 178.948C584.622 179.225 584.241 179.364 583.79 179.364C583.357 179.364 582.984 179.225 582.672 178.948C582.36 178.671 582.204 178.22 582.204 177.596ZM605.588 177.375H597.463V175.75H599.088V170.875H595.838V169.25H607.213V170.875H603.963V175.75H605.588V177.375ZM620.213 177.375H615.338V174.125H613.713V177.375H608.838V169.25H613.713V172.5H615.338V169.25H620.213V177.375ZM626.713 175.75H633.213V177.375H621.838V169.25H633.213V170.875H626.713V172.5H631.588V174.125H626.713V175.75ZM647.547 160.436L647.027 167.144H645.597L645.077 160.436H647.547ZM652.305 160.436L651.785 167.144H650.355L649.835 160.436H652.305ZM663.75 177.375H655.625V175.75H654V170.875H655.625V169.25H663.75V170.875H665.375V172.5H660.5V170.875H658.875V175.75H660.5V174.125H665.375V175.75H663.75V177.375ZM676.75 177.375H668.625V175.75H667V169.25H671.875V175.75H673.5V169.25H678.375V175.75H676.75V177.375ZM684.875 175.75H691.375V177.375H680V169.25H684.875V175.75ZM702.75 177.375H694.625V175.75H696.25V170.875H693V169.25H704.375V170.875H701.125V175.75H702.75V177.375ZM9.75 197.375H1.625V195.75H0V190.875H1.625V189.25H9.75V190.875H11.375V195.75H9.75V197.375ZM6.5 195.75V190.875H4.875V195.75H6.5ZM17.875 197.375H13V189.25H24.375V190.875H17.875V192.5H22.75V194.125H17.875V197.375ZM47.4227 197.375H42.5477V195.75H40.9227V197.375H36.0477V189.25H40.9227V190.875H42.5477V189.25H47.4227V190.875H45.7977V192.5H44.1727V194.125H45.7977V195.75H47.4227V197.375ZM53.9227 195.75H60.4227V197.375H49.0477V189.25H60.4227V190.875H53.9227V192.5H58.7977V194.125H53.9227V195.75ZM73.4227 197.375H68.5477V195.75H66.9227V197.375H62.0477V189.25H66.9227V190.875H68.5477V189.25H73.4227V190.875H71.7977V192.5H70.1727V194.125H71.7977V195.75H73.4227V197.375ZM79.2077 180.436L78.6877 187.144H77.2577L76.7377 180.436H79.2077ZM83.9657 180.436L83.4457 187.144H82.0157L81.4957 180.436H83.9657ZM100.584 197.375H95.7088V189.25H100.584V197.375ZM111.959 197.375H102.209V195.75H108.709V194.125H103.834V192.5H102.209V190.875H103.834V189.25H113.584V190.875H107.084V192.5H111.959V194.125H113.584V195.75H111.959V197.375ZM135.007 197.375H126.882V195.75H125.257V190.875H126.882V189.25H135.007V190.875H136.632V192.5H131.757V190.875H130.132V195.75H131.757V194.125H136.632V195.75H135.007V197.375ZM148.007 197.375H139.882V195.75H138.257V190.875H139.882V189.25H148.007V190.875H149.632V195.75H148.007V197.375ZM144.757 195.75V190.875H143.132V195.75H144.757ZM162.632 197.375H159.382V195.75H156.132V194.125H154.507V197.375H151.257V189.25H154.507V190.875H157.757V192.5H159.382V189.25H162.632V197.375ZM174.007 197.375H164.257V195.75H170.757V194.125H165.882V192.5H164.257V190.875H165.882V189.25H175.632V190.875H169.132V192.5H174.007V194.125H175.632V195.75H174.007V197.375ZM182.132 197.375H177.257V189.25H182.132V197.375ZM193.507 197.375H183.757V189.25H193.507V190.875H195.132V195.75H193.507V197.375ZM190.257 195.75V190.875H188.632V195.75H190.257ZM201.632 195.75H208.132V197.375H196.757V189.25H208.132V190.875H201.632V192.5H206.507V194.125H201.632V195.75ZM221.132 197.375H216.257V195.75H214.632V197.375H209.757V189.25H219.507V190.875H221.132V194.125H219.507V195.75H221.132V197.375ZM216.257 194.125V190.875H214.632V194.125H216.257ZM227.632 195.75H234.132V197.375H222.757V189.25H234.132V190.875H227.632V192.5H232.507V194.125H227.632V195.75ZM245.507 197.375H235.757V189.25H245.507V190.875H247.132V195.75H245.507V197.375ZM242.257 195.75V190.875H240.632V195.75H242.257ZM270.179 197.375H265.304V195.75H263.679V197.375H258.804V190.875H260.429V189.25H268.554V190.875H270.179V197.375ZM265.304 194.125V190.875H263.679V194.125H265.304ZM286.727 197.375H281.852V189.25H293.227V190.875H286.727V192.5H291.602V194.125H286.727V197.375ZM306.227 197.375H301.352V195.75H299.727V197.375H294.852V190.875H296.477V189.25H304.602V190.875H306.227V197.375ZM301.352 194.125V190.875H299.727V194.125H301.352ZM317.602 197.375H309.477V195.75H307.852V190.875H309.477V189.25H317.602V190.875H319.227V192.5H314.352V190.875H312.727V195.75H314.352V194.125H319.227V195.75H317.602V197.375ZM325.727 195.75H332.227V197.375H320.852V189.25H332.227V190.875H325.727V192.5H330.602V194.125H325.727V195.75ZM343.602 197.375H335.477V195.75H337.102V190.875H333.852V189.25H345.227V190.875H341.977V195.75H343.602V197.375ZM366.65 197.375H358.525V195.75H356.9V190.875H358.525V189.25H366.65V190.875H368.275V195.75H366.65V197.375ZM363.4 195.75V190.875H361.775V195.75H363.4ZM374.775 197.375H369.9V189.25H381.275V190.875H374.775V192.5H379.65V194.125H374.775V197.375ZM397.822 197.375H392.947V189.25H397.822V197.375ZM410.822 197.375H407.572V195.75H404.322V194.125H402.697V197.375H399.447V189.25H402.697V190.875H405.947V192.5H407.572V189.25H410.822V197.375ZM422.197 197.375H414.072V195.75H415.697V190.875H412.447V189.25H423.822V190.875H420.572V195.75H422.197V197.375ZM430.322 195.75H436.822V197.375H425.447V189.25H436.822V190.875H430.322V192.5H435.197V194.125H430.322V195.75ZM449.822 197.375H444.947V195.75H443.322V197.375H438.447V189.25H448.197V190.875H449.822V194.125H448.197V195.75H449.822V197.375ZM444.947 194.125V190.875H443.322V194.125H444.947ZM462.822 197.375H459.572V195.75H456.322V194.125H454.697V197.375H451.447V189.25H454.697V190.875H457.947V192.5H459.572V189.25H462.822V197.375ZM469.322 195.75H475.822V197.375H464.447V189.25H475.822V190.875H469.322V192.5H474.197V194.125H469.322V195.75ZM487.197 197.375H479.072V195.75H480.697V190.875H477.447V189.25H488.822V190.875H485.572V195.75H487.197V197.375ZM510.245 197.375H502.12V195.75H500.495V190.875H502.12V189.25H510.245V190.875H511.87V192.5H506.995V190.875H505.37V195.75H506.995V194.125H511.87V195.75H510.245V197.375ZM523.245 197.375H515.12V195.75H513.495V189.25H518.37V195.75H519.995V189.25H524.87V195.75H523.245V197.375ZM531.37 195.75H537.87V197.375H526.495V189.25H531.37V195.75ZM549.245 197.375H541.12V195.75H542.745V190.875H539.495V189.25H550.87V190.875H547.62V195.75H549.245V197.375ZM562.245 197.375H554.12V195.75H552.495V189.25H557.37V195.75H558.995V189.25H563.87V195.75H562.245V197.375ZM576.87 197.375H571.995V195.75H570.37V197.375H565.495V189.25H575.245V190.875H576.87V194.125H575.245V195.75H576.87V197.375ZM571.995 194.125V190.875H570.37V194.125H571.995ZM583.37 195.75H589.87V197.375H578.495V189.25H589.87V190.875H583.37V192.5H588.245V194.125H583.37V195.75ZM596.487 196.27C596.331 196.877 596.132 197.535 595.889 198.246C595.647 198.957 595.378 199.659 595.083 200.352C594.806 201.063 594.529 201.73 594.251 202.354H592.561C592.735 201.695 592.899 200.985 593.055 200.222C593.229 199.477 593.385 198.74 593.523 198.012C593.662 197.267 593.775 196.591 593.861 195.984H596.305L596.487 196.27ZM618.25 197.375H608.5V189.25H618.25V190.875H619.875V192.5H618.25V194.125H619.875V195.75H618.25V197.375ZM615 192.5V190.875H613.375V192.5H615ZM615 195.75V194.125H613.375V195.75H615ZM626.375 195.75H632.875V197.375H621.5V189.25H626.375V195.75ZM639.375 195.75H645.875V197.375H634.5V189.25H645.875V190.875H639.375V192.5H644.25V194.125H639.375V195.75ZM658.875 197.375H655.625V195.75H652.375V194.125H650.75V197.375H647.5V189.25H650.75V190.875H654V192.5H655.625V189.25H658.875V197.375ZM670.25 197.375H660.5V189.25H670.25V190.875H671.875V195.75H670.25V197.375ZM667 195.75V190.875H665.375V195.75H667ZM678.375 197.375H673.5V189.25H678.375V197.375ZM691.375 197.375H688.125V195.75H684.875V194.125H683.25V197.375H680V189.25H683.25V190.875H686.5V192.5H688.125V189.25H691.375V197.375ZM702.75 197.375H694.625V195.75H693V190.875H694.625V189.25H702.75V190.875H697.875V195.75H701.125V194.125H699.5V192.5H704.375V195.75H702.75V197.375ZM4.875 215.75H11.375V217.375H0V209.25H11.375V210.875H4.875V212.5H9.75V214.125H4.875V215.75ZM17.875 215.75H24.375V217.375H13V209.25H17.875V215.75ZM30.875 215.75H37.375V217.375H26V209.25H37.375V210.875H30.875V212.5H35.75V214.125H30.875V215.75ZM43.875 215.75V214.125H42.25V217.375H39V209.25H42.25V210.875H43.875V212.5H45.5V210.875H47.125V209.25H50.375V217.375H47.125V214.125H45.5V215.75H43.875ZM56.875 215.75H63.375V217.375H52V209.25H63.375V210.875H56.875V212.5H61.75V214.125H56.875V215.75ZM76.375 217.375H73.125V215.75H69.875V214.125H68.25V217.375H65V209.25H68.25V210.875H71.5V212.5H73.125V209.25H76.375V217.375ZM87.75 217.375H79.625V215.75H81.25V210.875H78V209.25H89.375V210.875H86.125V215.75H87.75V217.375ZM100.75 217.375H91V215.75H97.5V214.125H92.625V212.5H91V210.875H92.625V209.25H102.375V210.875H95.875V212.5H100.75V214.125H102.375V215.75H100.75V217.375ZM121.875 217.375H113.75V215.75H112.125V210.875H113.75V209.25H121.875V210.875H123.5V215.75H121.875V217.375ZM118.625 215.75V210.875H117V215.75H118.625ZM130 217.375H125.125V209.25H136.5V210.875H130V212.5H134.875V214.125H130V217.375ZM157.625 217.375H152.75V214.125H151.125V217.375H146.25V209.25H151.125V212.5H152.75V209.25H157.625V217.375ZM169 217.375H160.875V215.75H159.25V209.25H164.125V215.75H165.75V209.25H170.625V215.75H169V217.375ZM177.125 215.75V214.125H175.5V217.375H172.25V209.25H175.5V210.875H177.125V212.5H178.75V210.875H180.375V209.25H183.625V217.375H180.375V214.125H178.75V215.75H177.125ZM195 217.375H186.875V215.75H185.25V210.875H186.875V209.25H195V210.875H196.625V215.75H195V217.375ZM191.75 215.75V210.875H190.125V215.75H191.75ZM209.625 217.375H204.75V215.75H203.125V217.375H198.25V209.25H208V210.875H209.625V214.125H208V215.75H209.625V217.375ZM204.75 214.125V210.875H203.125V214.125H204.75ZM216.242 216.27C216.086 216.877 215.887 217.535 215.644 218.246C215.401 218.957 215.133 219.659 214.838 220.352C214.561 221.063 214.283 221.73 214.006 222.354H212.316C212.489 221.695 212.654 220.985 212.81 220.222C212.983 219.477 213.139 218.74 213.278 218.012C213.417 217.267 213.529 216.591 213.616 215.984H216.06L216.242 216.27ZM231.207 217.375H226.332V209.25H231.207V217.375ZM244.207 217.375H239.332V215.75H237.707V217.375H232.832V209.25H242.582V210.875H244.207V214.125H242.582V215.75H244.207V217.375ZM239.332 214.125V210.875H237.707V214.125H239.332ZM255.582 217.375H247.457V215.75H245.832V210.875H247.457V209.25H255.582V210.875H257.207V215.75H255.582V217.375ZM252.332 215.75V210.875H250.707V215.75H252.332ZM270.207 217.375H266.957V215.75H263.707V214.125H262.082V217.375H258.832V209.25H262.082V210.875H265.332V212.5H266.957V209.25H270.207V217.375ZM279.957 217.375H275.082V214.125H273.457V212.5H271.832V209.25H275.082V210.875H276.707V212.5H278.332V210.875H279.957V209.25H283.207V212.5H281.582V214.125H279.957V217.375ZM289.824 216.27C289.668 216.877 289.469 217.535 289.226 218.246C288.983 218.957 288.715 219.659 288.42 220.352C288.143 221.063 287.865 221.73 287.588 222.354H285.898C286.071 221.695 286.236 220.985 286.392 220.222C286.565 219.477 286.721 218.74 286.86 218.012C286.999 217.267 287.111 216.591 287.198 215.984H289.642L289.824 216.27ZM311.289 217.375H306.414V215.75H304.789V217.375H299.914V210.875H301.539V209.25H309.664V210.875H311.289V217.375ZM306.414 214.125V210.875H304.789V214.125H306.414ZM324.289 217.375H321.039V215.75H317.789V214.125H316.164V217.375H312.914V209.25H316.164V210.875H319.414V212.5H321.039V209.25H324.289V217.375ZM335.664 217.375H325.914V209.25H335.664V210.875H337.289V215.75H335.664V217.375ZM332.414 215.75V210.875H330.789V215.75H332.414ZM356.789 217.375H348.664V215.75H347.039V210.875H348.664V209.25H356.789V210.875H358.414V215.75H356.789V217.375ZM353.539 215.75V210.875H351.914V215.75H353.539ZM371.414 217.375H368.164V215.75H364.914V214.125H363.289V217.375H360.039V209.25H363.289V210.875H366.539V212.5H368.164V209.25H371.414V217.375ZM377.914 215.75H384.414V217.375H373.039V209.25H377.914V215.75ZM390.914 217.375H386.039V209.25H390.914V217.375ZM403.914 217.375H400.664V215.75H397.414V214.125H395.789V217.375H392.539V209.25H395.789V210.875H399.039V212.5H400.664V209.25H403.914V217.375ZM410.414 215.75H416.914V217.375H405.539V209.25H416.914V210.875H410.414V212.5H415.289V214.125H410.414V215.75ZM431.539 215.75V214.125H429.914V217.375H426.664V209.25H429.914V210.875H431.539V212.5H433.164V210.875H434.789V209.25H438.039V217.375H434.789V214.125H433.164V215.75H431.539ZM447.789 217.375H442.914V214.125H441.289V212.5H439.664V209.25H442.914V210.875H444.539V212.5H446.164V210.875H447.789V209.25H451.039V212.5H449.414V214.125H447.789V217.375ZM462.414 217.375H454.289V215.75H455.914V210.875H452.664V209.25H464.039V210.875H460.789V215.75H462.414V217.375ZM477.039 217.375H472.164V214.125H470.539V217.375H465.664V209.25H470.539V212.5H472.164V209.25H477.039V217.375ZM488.414 217.375H480.289V215.75H478.664V210.875H480.289V209.25H488.414V210.875H490.039V215.75H488.414V217.375ZM485.164 215.75V210.875H483.539V215.75H485.164ZM496.539 215.75H503.039V217.375H491.664V209.25H496.539V215.75ZM514.414 217.375H506.289V215.75H504.664V210.875H506.289V209.25H514.414V210.875H516.039V215.75H514.414V217.375ZM511.164 215.75V210.875H509.539V215.75H511.164ZM527.414 217.375H519.289V215.75H517.664V210.875H519.289V209.25H527.414V210.875H522.539V215.75H525.789V214.125H524.164V212.5H529.039V215.75H527.414V217.375ZM538.789 217.375H533.914V214.125H532.289V212.5H530.664V209.25H533.914V210.875H535.539V212.5H537.164V210.875H538.789V209.25H542.039V212.5H540.414V214.125H538.789V217.375ZM545.536 217.596C545.536 216.955 545.692 216.504 546.004 216.244C546.316 215.984 546.689 215.854 547.122 215.854C547.573 215.854 547.954 215.984 548.266 216.244C548.595 216.504 548.76 216.955 548.76 217.596C548.76 218.22 548.595 218.671 548.266 218.948C547.954 219.225 547.573 219.364 547.122 219.364C546.689 219.364 546.316 219.225 546.004 218.948C545.692 218.671 545.536 218.22 545.536 217.596Z" fill="#D3D3D3"/>
</svg>
