<svg width="527" height="52" viewBox="0 0 527 52" fill="none" xmlns="http://www.w3.org/2000/svg">
<path d="M8.4375 14.1875H0V0.125H16.875V2.9375H19.6875V8.5625H16.875V11.375H8.4375V14.1875ZM11.25 8.5625V2.9375H8.4375V8.5625H11.25ZM39.375 14.1875H25.3125V11.375H22.5V2.9375H25.3125V0.125H39.375V2.9375H42.1875V11.375H39.375V14.1875ZM33.75 11.375V2.9375H30.9375V11.375H33.75ZM61.875 14.1875H56.25V11.375H53.4375V14.1875H47.8125V11.375H45V0.125H50.625V5.75H53.4375V2.9375H56.25V5.75H59.0625V0.125H64.6875V11.375H61.875V14.1875ZM75.9375 11.375H87.1875V14.1875H67.5V0.125H87.1875V2.9375H75.9375V5.75H84.375V8.5625H75.9375V11.375ZM109.688 14.1875H101.25V11.375H98.4375V14.1875H90V0.125H106.875V2.9375H109.688V8.5625H106.875V11.375H109.688V14.1875ZM101.25 8.5625V2.9375H98.4375V8.5625H101.25ZM143.438 14.1875H129.375V11.375H132.188V2.9375H126.562V0.125H146.25V2.9375H140.625V11.375H143.438V14.1875ZM165.938 14.1875H151.875V11.375H149.062V2.9375H151.875V0.125H165.938V2.9375H168.75V11.375H165.938V14.1875ZM160.312 11.375V2.9375H157.5V11.375H160.312ZM205.312 14.1875H196.875V11.375H194.062V14.1875H185.625V0.125H194.062V2.9375H196.875V0.125H205.312V2.9375H202.5V5.75H199.688V8.5625H202.5V11.375H205.312V14.1875ZM216.562 11.375H227.812V14.1875H208.125V0.125H227.812V2.9375H216.562V5.75H225V8.5625H216.562V11.375ZM250.312 14.1875H241.875V11.375H239.062V14.1875H230.625V0.125H239.062V2.9375H241.875V0.125H250.312V2.9375H247.5V5.75H244.688V8.5625H247.5V11.375H250.312V14.1875ZM261.562 14.1875H253.125V0.125H261.562V14.1875ZM281.25 14.1875H264.375V11.375H275.625V8.5625H267.188V5.75H264.375V2.9375H267.188V0.125H284.062V2.9375H272.812V5.75H281.25V8.5625H284.062V11.375H281.25V14.1875ZM303.75 14.1875H289.688V11.375H292.5V2.9375H286.875V0.125H306.562V2.9375H300.938V11.375H303.75V14.1875ZM329.062 14.1875H320.625V11.375H317.812V14.1875H309.375V2.9375H312.188V0.125H326.25V2.9375H329.062V14.1875ZM320.625 8.5625V2.9375H317.812V8.5625H320.625ZM351.562 14.1875H345.938V11.375H340.312V8.5625H337.5V14.1875H331.875V0.125H337.5V2.9375H343.125V5.75H345.938V0.125H351.562V14.1875ZM16.875 48.1875H2.8125V45.375H5.625V36.9375H0V34.125H19.6875V36.9375H14.0625V45.375H16.875V48.1875ZM42.1875 48.1875H33.75V42.5625H30.9375V48.1875H22.5V34.125H30.9375V39.75H33.75V34.125H42.1875V48.1875ZM53.4375 45.375H64.6875V48.1875H45V34.125H64.6875V36.9375H53.4375V39.75H61.875V42.5625H53.4375V45.375ZM98.4375 48.1875H84.375V45.375H81.5625V36.9375H84.375V34.125H98.4375V36.9375H101.25V39.75H92.8125V36.9375H90V45.375H92.8125V42.5625H101.25V45.375H98.4375V48.1875ZM123.75 48.1875H115.312V42.5625H112.5V48.1875H104.062V34.125H112.5V39.75H115.312V34.125H123.75V48.1875ZM143.438 48.1875H129.375V45.375H126.562V34.125H135V45.375H137.812V34.125H146.25V45.375H143.438V48.1875ZM168.75 48.1875H160.312V45.375H157.5V48.1875H149.062V34.125H165.938V36.9375H168.75V42.5625H165.938V45.375H168.75V48.1875ZM160.312 42.5625V36.9375H157.5V42.5625H160.312ZM188.438 48.1875H174.375V45.375H171.562V36.9375H174.375V34.125H188.438V36.9375H191.25V39.75H182.812V36.9375H180V45.375H182.812V42.5625H191.25V45.375H188.438V48.1875ZM213.75 48.1875H205.312V42.5625H202.5V48.1875H194.062V34.125H202.5V39.75H205.312V34.125H213.75V48.1875ZM247.5 48.1875H241.875V45.375H239.062V48.1875H233.438V45.375H230.625V34.125H236.25V39.75H239.062V36.9375H241.875V39.75H244.688V34.125H250.312V45.375H247.5V48.1875ZM261.562 48.1875H253.125V34.125H261.562V48.1875ZM272.812 45.375H284.062V48.1875H264.375V34.125H272.812V45.375ZM295.312 45.375H306.562V48.1875H286.875V34.125H295.312V45.375ZM343.125 48.1875H334.688V45.375H331.875V48.1875H323.438V34.125H340.312V36.9375H343.125V42.5625H340.312V45.375H343.125V48.1875ZM334.688 42.5625V36.9375H331.875V42.5625H334.688ZM354.375 48.1875H345.938V34.125H354.375V48.1875ZM374.062 48.1875H357.188V45.375H368.438V42.5625H360V39.75H357.188V36.9375H360V34.125H376.875V36.9375H365.625V39.75H374.062V42.5625H376.875V45.375H374.062V48.1875ZM388.125 45.375H399.375V48.1875H379.688V34.125H399.375V36.9375H388.125V39.75H396.562V42.5625H388.125V45.375ZM435.938 48.1875H427.5V45.375H424.688V48.1875H416.25V36.9375H419.062V34.125H433.125V36.9375H435.938V48.1875ZM427.5 42.5625V36.9375H424.688V42.5625H427.5ZM455.625 48.1875H441.562V45.375H438.75V36.9375H441.562V34.125H455.625V36.9375H447.188V45.375H452.812V42.5625H450V39.75H458.438V45.375H455.625V48.1875ZM480.938 48.1875H472.5V45.375H469.688V48.1875H461.25V36.9375H464.062V34.125H478.125V36.9375H480.938V48.1875ZM472.5 42.5625V36.9375H469.688V42.5625H472.5ZM492.188 48.1875H483.75V34.125H492.188V48.1875ZM514.688 48.1875H509.062V45.375H503.438V42.5625H500.625V48.1875H495V34.125H500.625V36.9375H506.25V39.75H509.062V34.125H514.688V48.1875ZM520.74 48.57C520.74 47.46 521.01 46.68 521.55 46.23C522.09 45.78 522.735 45.555 523.485 45.555C524.265 45.555 524.925 45.78 525.465 46.23C526.035 46.68 526.32 47.46 526.32 48.57C526.32 49.65 526.035 50.43 525.465 50.91C524.925 51.39 524.265 51.63 523.485 51.63C522.735 51.63 522.09 51.39 521.55 50.91C521.01 50.43 520.74 49.65 520.74 48.57Z" fill="#D3D3D3"/>
</svg>
